<mxfile host="app.diagrams.net" modified="2021-01-25T06:11:40.293Z" agent="5.0 (Windows NT 10.0; Win64; x64) AppleWebKit/537.36 (KHTML, like Gecko) Chrome/87.0.4280.141 Safari/537.36" etag="0oq7jYpU7VHvPve8l2kg" version="14.2.7" type="github">
  <diagram id="Zq9hnfcXsbe9FfwRNvJQ" name="DIA">
    <mxGraphModel dx="6818" dy="4243" grid="1" gridSize="10" guides="1" tooltips="1" connect="1" arrows="1" fold="1" page="1" pageScale="1" pageWidth="1700" pageHeight="1100" math="0" shadow="0">
      <root>
        <mxCell id="0" />
        <mxCell id="1" parent="0" />
        <mxCell id="Wgui1w8sPpxk3eTbF6N7-1" style="edgeStyle=orthogonalEdgeStyle;rounded=0;orthogonalLoop=1;jettySize=auto;html=1;entryX=0;entryY=0.5;entryDx=0;entryDy=0;noEdgeStyle=1;orthogonal=1;sketch=1;sketchStyle=rough;" parent="1" source="Wgui1w8sPpxk3eTbF6N7-5" target="Wgui1w8sPpxk3eTbF6N7-16" edge="1">
          <mxGeometry relative="1" as="geometry" />
        </mxCell>
        <mxCell id="Wgui1w8sPpxk3eTbF6N7-2" style="edgeStyle=orthogonalEdgeStyle;rounded=0;orthogonalLoop=1;jettySize=auto;html=1;entryX=0;entryY=0.5;entryDx=0;entryDy=0;noEdgeStyle=1;orthogonal=1;sketch=1;sketchStyle=rough;" parent="1" source="Wgui1w8sPpxk3eTbF6N7-5" target="Wgui1w8sPpxk3eTbF6N7-23" edge="1">
          <mxGeometry relative="1" as="geometry">
            <mxPoint x="-5680" y="-10368.04" as="targetPoint" />
          </mxGeometry>
        </mxCell>
        <mxCell id="Wgui1w8sPpxk3eTbF6N7-3" style="edgeStyle=orthogonalEdgeStyle;rounded=0;orthogonalLoop=1;jettySize=auto;html=1;entryX=0;entryY=0.5;entryDx=0;entryDy=0;noEdgeStyle=1;orthogonal=1;sketch=1;sketchStyle=rough;" parent="1" source="Wgui1w8sPpxk3eTbF6N7-5" target="Wgui1w8sPpxk3eTbF6N7-93" edge="1">
          <mxGeometry relative="1" as="geometry" />
        </mxCell>
        <mxCell id="Wgui1w8sPpxk3eTbF6N7-4" style="edgeStyle=orthogonalEdgeStyle;rounded=0;orthogonalLoop=1;jettySize=auto;html=1;entryX=0;entryY=0.5;entryDx=0;entryDy=0;noEdgeStyle=1;orthogonal=1;sketch=1;sketchStyle=rough;" parent="1" source="Wgui1w8sPpxk3eTbF6N7-5" target="Wgui1w8sPpxk3eTbF6N7-100" edge="1">
          <mxGeometry relative="1" as="geometry" />
        </mxCell>
        <mxCell id="Wgui1w8sPpxk3eTbF6N7-5" value="GATES" style="swimlane;html=1;childLayout=stackLayout;resizeParent=1;resizeParentMax=0;horizontal=1;startSize=20;horizontalStack=0;sketch=1;sketchStyle=rough;fillColor=#ffcd28;strokeColor=#d79b00;gradientColor=#ffa500;" parent="1" vertex="1">
          <mxGeometry x="-5040" y="-2117.503653564453" width="350" height="890" as="geometry">
            <mxRectangle x="-5040" y="-2117.503653564453" width="120" height="20" as="alternateBounds" />
          </mxGeometry>
        </mxCell>
        <mxCell id="Wgui1w8sPpxk3eTbF6N7-6" value="subsystems" style="swimlane;html=1;startSize=20;horizontal=0;" parent="Wgui1w8sPpxk3eTbF6N7-5" vertex="1">
          <mxGeometry y="20" width="350" height="340" as="geometry">
            <mxRectangle y="20" width="350" height="20" as="alternateBounds" />
          </mxGeometry>
        </mxCell>
        <mxCell id="Wgui1w8sPpxk3eTbF6N7-7" value="&lt;ul&gt;&lt;li&gt;ARINC (arinc429) Avionics data bus&lt;/li&gt;&lt;li&gt;Calculated (calculated) Calculated and simulated signals&lt;/li&gt;&lt;li&gt;DTS (dts) Temperature measurements&lt;/li&gt;&lt;ul&gt;&lt;li&gt;DTS1124&lt;/li&gt;&lt;li&gt;DTS1125&lt;/li&gt;&lt;li&gt;DTS1126&lt;/li&gt;&lt;li&gt;DTS1127&lt;/li&gt;&lt;/ul&gt;&lt;li&gt;FCS (modbus-ethernet) Facility Control System&lt;/li&gt;&lt;li&gt;IDDS (iDDS) Mandatory for iDDS to work&lt;/li&gt;&lt;li&gt;IDDSnode (iDDSnode) iDDS devices&lt;/li&gt;&lt;ul&gt;&lt;li&gt;&lt;span&gt;MDS&lt;/span&gt;&lt;br&gt;&lt;/li&gt;&lt;ul&gt;&lt;li&gt;&lt;span&gt;nxCollector&lt;/span&gt;&lt;/li&gt;&lt;ul&gt;&lt;li&gt;&lt;span&gt;18:1-2000:r &lt;br&gt;18:3001-10000:r &lt;br&gt;19:2001-2300:r &lt;br&gt;20:2301-2600:r &lt;br&gt;21:2601-2900:r&lt;br&gt;&lt;/span&gt;&lt;/li&gt;&lt;li&gt;&lt;span&gt;CL_Enable&lt;/span&gt;&lt;/li&gt;&lt;/ul&gt;&lt;/ul&gt;&lt;li&gt;&lt;span&gt;UEI&lt;/span&gt;&lt;/li&gt;&lt;ul&gt;&lt;li&gt;&lt;span&gt;IOM-225593 (standard)&lt;/span&gt;&lt;/li&gt;&lt;li&gt;&lt;span&gt;IOM-225763 (rugged)&lt;/span&gt;&lt;/li&gt;&lt;li&gt;&lt;span&gt;IOM-226128 (rugged)&lt;/span&gt;&lt;/li&gt;&lt;/ul&gt;&lt;/ul&gt;&lt;li&gt;PBS (pbs) Pressure measurements&lt;/li&gt;&lt;ul&gt;&lt;li&gt;PBS21270&lt;/li&gt;&lt;li&gt;PBS21271&lt;/li&gt;&lt;/ul&gt;&lt;/ul&gt;" style="text;align=left;verticalAlign=middle;resizable=0;points=[];autosize=1;fontSize=10;fontFamily=Comic Sans MS;rounded=0;sketch=0;html=1;" parent="Wgui1w8sPpxk3eTbF6N7-6" vertex="1">
          <mxGeometry x="20" width="310" height="330" as="geometry" />
        </mxCell>
        <mxCell id="Wgui1w8sPpxk3eTbF6N7-8" value="channels" style="swimlane;html=1;startSize=20;horizontal=0;" parent="Wgui1w8sPpxk3eTbF6N7-5" vertex="1">
          <mxGeometry y="360" width="350" height="170" as="geometry">
            <mxRectangle y="140" width="160" height="20" as="alternateBounds" />
          </mxGeometry>
        </mxCell>
        <mxCell id="Wgui1w8sPpxk3eTbF6N7-9" value="&lt;ul&gt;&lt;li&gt;&lt;span&gt;Calculated:&amp;nbsp;&lt;/span&gt;&lt;br&gt;&lt;/li&gt;&lt;ul&gt;&lt;li&gt;DAS and RTE mandatory channels&lt;/li&gt;&lt;li&gt;GID 6001 - 6200&lt;/li&gt;&lt;/ul&gt;&lt;li&gt;&lt;font color=&quot;#ff0000&quot;&gt;DTS&lt;/font&gt;&lt;/li&gt;&lt;ul&gt;&lt;li&gt;&lt;font color=&quot;#ff0000&quot;&gt;Facility&lt;/font&gt;&lt;/li&gt;&lt;/ul&gt;&lt;li&gt;&lt;font color=&quot;#ff0000&quot;&gt;FCS&lt;/font&gt;&lt;/li&gt;&lt;ul&gt;&lt;li&gt;&lt;font color=&quot;#ff0000&quot;&gt;Facility (Alex updating ICL)&lt;/font&gt;&lt;/li&gt;&lt;/ul&gt;&lt;li&gt;&lt;span&gt;&lt;font color=&quot;#ff0000&quot;&gt;IDDSnode&lt;/font&gt;&lt;/span&gt;&lt;/li&gt;&lt;ul&gt;&lt;li&gt;&lt;span&gt;&lt;font color=&quot;#ff0000&quot;&gt;Facility&lt;/font&gt;&lt;/span&gt;&lt;/li&gt;&lt;/ul&gt;&lt;li&gt;&lt;font color=&quot;#ff0000&quot;&gt;PBS&lt;/font&gt;&lt;/li&gt;&lt;ul&gt;&lt;li&gt;&lt;font color=&quot;#ff0000&quot;&gt;Facility&lt;/font&gt;&lt;/li&gt;&lt;/ul&gt;&lt;/ul&gt;" style="text;align=left;verticalAlign=middle;resizable=0;points=[];autosize=1;fontSize=10;fontFamily=Comic Sans MS;rounded=0;sketch=0;html=1;" parent="Wgui1w8sPpxk3eTbF6N7-8" vertex="1">
          <mxGeometry x="20" y="-5" width="250" height="160" as="geometry" />
        </mxCell>
        <mxCell id="Wgui1w8sPpxk3eTbF6N7-10" value="transient-logs" style="swimlane;html=1;startSize=20;horizontal=0;" parent="Wgui1w8sPpxk3eTbF6N7-5" vertex="1">
          <mxGeometry y="530" width="350" height="120" as="geometry">
            <mxRectangle y="260" width="160" height="20" as="alternateBounds" />
          </mxGeometry>
        </mxCell>
        <mxCell id="Wgui1w8sPpxk3eTbF6N7-12" value="&lt;ul&gt;&lt;li&gt;Demo_Log&lt;/li&gt;&lt;/ul&gt;" style="text;align=left;verticalAlign=middle;resizable=0;points=[];autosize=1;fontSize=10;fontFamily=Comic Sans MS;rounded=0;sketch=0;html=1;" parent="Wgui1w8sPpxk3eTbF6N7-10" vertex="1">
          <mxGeometry x="20" width="100" height="40" as="geometry" />
        </mxCell>
        <mxCell id="Wgui1w8sPpxk3eTbF6N7-11" value="&lt;span style=&quot;background-color: rgb(248 , 249 , 250)&quot;&gt;bpts&lt;/span&gt;" style="swimlane;html=1;startSize=20;horizontal=0;" parent="Wgui1w8sPpxk3eTbF6N7-5" vertex="1">
          <mxGeometry y="650" width="350" height="120" as="geometry">
            <mxRectangle y="380" width="160" height="20" as="alternateBounds" />
          </mxGeometry>
        </mxCell>
        <mxCell id="Wgui1w8sPpxk3eTbF6N7-14" value="&lt;ul&gt;&lt;li&gt;&lt;span&gt;(36) RTD thermocouple conversion tables&lt;/span&gt;&lt;br&gt;&lt;/li&gt;&lt;/ul&gt;" style="text;align=left;verticalAlign=middle;resizable=0;points=[];autosize=1;fontSize=10;fontFamily=Comic Sans MS;rounded=0;sketch=0;html=1;" parent="Wgui1w8sPpxk3eTbF6N7-11" vertex="1">
          <mxGeometry x="20" width="250" height="40" as="geometry" />
        </mxCell>
        <mxCell id="Wgui1w8sPpxk3eTbF6N7-13" value="&lt;span style=&quot;background-color: rgb(248 , 249 , 250)&quot;&gt;polynomials&lt;/span&gt;" style="swimlane;html=1;startSize=20;horizontal=0;" parent="Wgui1w8sPpxk3eTbF6N7-5" vertex="1">
          <mxGeometry y="770" width="350" height="120" as="geometry">
            <mxRectangle y="550" width="350" height="20" as="alternateBounds" />
          </mxGeometry>
        </mxCell>
        <mxCell id="Wgui1w8sPpxk3eTbF6N7-15" style="edgeStyle=orthogonalEdgeStyle;rounded=0;orthogonalLoop=1;jettySize=auto;html=1;noEdgeStyle=1;orthogonal=1;sketch=1;sketchStyle=rough;entryX=0;entryY=0.5;entryDx=0;entryDy=0;" parent="1" source="Wgui1w8sPpxk3eTbF6N7-16" target="Wgui1w8sPpxk3eTbF6N7-30" edge="1">
          <mxGeometry relative="1" as="geometry" />
        </mxCell>
        <mxCell id="Wgui1w8sPpxk3eTbF6N7-16" value="ATP_Calibration" style="swimlane;html=1;childLayout=stackLayout;resizeParent=1;resizeParentMax=0;horizontal=1;startSize=20;horizontalStack=0;sketch=1;sketchStyle=rough;fillColor=#f8cecc;strokeColor=#b85450;gradientColor=#ea6b66;" parent="1" vertex="1">
          <mxGeometry x="-4610" y="-2125.003653564453" width="250" height="520" as="geometry">
            <mxRectangle x="240" y="600" width="120" height="20" as="alternateBounds" />
          </mxGeometry>
        </mxCell>
        <mxCell id="Wgui1w8sPpxk3eTbF6N7-17" value="subsystems" style="swimlane;html=1;startSize=20;horizontal=0;sketchStyle=rough;" parent="Wgui1w8sPpxk3eTbF6N7-16" vertex="1" collapsed="1">
          <mxGeometry y="20" width="250" height="20" as="geometry">
            <mxRectangle y="20" width="160" height="120" as="alternateBounds" />
          </mxGeometry>
        </mxCell>
        <mxCell id="Wgui1w8sPpxk3eTbF6N7-18" value="channels" style="swimlane;html=1;startSize=20;horizontal=0;sketchStyle=rough;" parent="Wgui1w8sPpxk3eTbF6N7-16" vertex="1">
          <mxGeometry y="40" width="250" height="120" as="geometry">
            <mxRectangle y="40" width="160" height="20" as="alternateBounds" />
          </mxGeometry>
        </mxCell>
        <mxCell id="FcIGjHqDoQgn5boDgz93-2" value="&lt;ul&gt;&lt;li&gt;All Math_ Channels&lt;/li&gt;&lt;/ul&gt;" style="text;align=left;verticalAlign=middle;resizable=0;points=[];autosize=1;fontSize=10;fontFamily=Comic Sans MS;rounded=0;sketch=0;html=1;" vertex="1" parent="Wgui1w8sPpxk3eTbF6N7-18">
          <mxGeometry x="20" y="5" width="150" height="40" as="geometry" />
        </mxCell>
        <mxCell id="Wgui1w8sPpxk3eTbF6N7-19" value="transient-logs" style="swimlane;html=1;startSize=20;horizontal=0;sketchStyle=rough;" parent="Wgui1w8sPpxk3eTbF6N7-16" vertex="1">
          <mxGeometry y="160" width="250" height="120" as="geometry">
            <mxRectangle y="160" width="160" height="20" as="alternateBounds" />
          </mxGeometry>
        </mxCell>
        <mxCell id="FcIGjHqDoQgn5boDgz93-3" value="&lt;ul&gt;&lt;li&gt;Demo_Log_001Hz to _200Hz&lt;/li&gt;&lt;ul&gt;&lt;li&gt;all log from 1Hz to 200Hz&lt;/li&gt;&lt;/ul&gt;&lt;/ul&gt;" style="text;align=left;verticalAlign=middle;resizable=0;points=[];autosize=1;fontSize=10;fontFamily=Comic Sans MS;rounded=0;sketch=0;html=1;" vertex="1" parent="Wgui1w8sPpxk3eTbF6N7-19">
          <mxGeometry x="20" y="-5" width="220" height="50" as="geometry" />
        </mxCell>
        <mxCell id="Wgui1w8sPpxk3eTbF6N7-20" value="&lt;span style=&quot;background-color: rgb(248 , 249 , 250)&quot;&gt;bpts&lt;/span&gt;" style="swimlane;html=1;startSize=20;horizontal=0;sketchStyle=rough;" parent="Wgui1w8sPpxk3eTbF6N7-16" vertex="1">
          <mxGeometry y="280" width="250" height="120" as="geometry">
            <mxRectangle y="280" width="160" height="20" as="alternateBounds" />
          </mxGeometry>
        </mxCell>
        <mxCell id="FcIGjHqDoQgn5boDgz93-1" value="&lt;ul&gt;&lt;li&gt;&lt;span&gt;Demo BPT for demo&amp;nbsp;&lt;/span&gt;calculations&lt;br&gt;&lt;/li&gt;&lt;li&gt;&lt;span&gt;Demo BPT for RTD Overlays&lt;/span&gt;&lt;/li&gt;&lt;/ul&gt;" style="text;align=left;verticalAlign=middle;resizable=0;points=[];autosize=1;fontSize=10;fontFamily=Comic Sans MS;rounded=0;sketch=0;html=1;" vertex="1" parent="Wgui1w8sPpxk3eTbF6N7-20">
          <mxGeometry x="20" width="210" height="50" as="geometry" />
        </mxCell>
        <mxCell id="Wgui1w8sPpxk3eTbF6N7-21" value="&lt;span style=&quot;background-color: rgb(248 , 249 , 250)&quot;&gt;polynomials&lt;/span&gt;" style="swimlane;html=1;startSize=20;horizontal=0;sketchStyle=rough;" parent="Wgui1w8sPpxk3eTbF6N7-16" vertex="1">
          <mxGeometry y="400" width="250" height="120" as="geometry">
            <mxRectangle y="400" width="160" height="20" as="alternateBounds" />
          </mxGeometry>
        </mxCell>
        <mxCell id="JqOLdT1LsUDMldBZ7WH4-18" value="&lt;ul&gt;&lt;li&gt;&lt;font color=&quot;#ff0000&quot;&gt;Demo BPT for demo calculations&lt;/font&gt;&lt;/li&gt;&lt;li&gt;&lt;font color=&quot;#ff0000&quot;&gt;Demo BPT for RTD Overlays&lt;/font&gt;&lt;/li&gt;&lt;ul&gt;&lt;li&gt;&lt;font color=&quot;#ff0000&quot;&gt;disabled - Bug Range&lt;/font&gt;&lt;/li&gt;&lt;/ul&gt;&lt;/ul&gt;" style="text;align=left;verticalAlign=middle;resizable=0;points=[];autosize=1;fontSize=10;fontFamily=Comic Sans MS;rounded=0;sketch=0;html=1;" parent="Wgui1w8sPpxk3eTbF6N7-21" vertex="1">
          <mxGeometry x="20" width="210" height="60" as="geometry" />
        </mxCell>
        <mxCell id="Wgui1w8sPpxk3eTbF6N7-22" style="edgeStyle=orthogonalEdgeStyle;rounded=0;orthogonalLoop=1;jettySize=auto;html=1;entryX=0;entryY=0.5;entryDx=0;entryDy=0;noEdgeStyle=1;orthogonal=1;sketch=1;sketchStyle=rough;fillColor=#f5f5f5;strokeColor=#666666;gradientColor=#b3b3b3;" parent="1" source="Wgui1w8sPpxk3eTbF6N7-23" target="Wgui1w8sPpxk3eTbF6N7-107" edge="1">
          <mxGeometry relative="1" as="geometry" />
        </mxCell>
        <mxCell id="Wgui1w8sPpxk3eTbF6N7-23" value="CFM56-5B" style="swimlane;html=1;childLayout=stackLayout;resizeParent=1;resizeParentMax=0;horizontal=1;startSize=20;horizontalStack=0;sketch=1;sketchStyle=rough;fillColor=#f5f5f5;strokeColor=#666666;gradientColor=#b3b3b3;" parent="1" vertex="1" collapsed="1">
          <mxGeometry x="-4610" y="-1360.003653564453" width="120" height="20" as="geometry">
            <mxRectangle x="240" y="720" width="160" height="220" as="alternateBounds" />
          </mxGeometry>
        </mxCell>
        <mxCell id="Wgui1w8sPpxk3eTbF6N7-24" value="subsystems" style="swimlane;html=1;startSize=20;horizontal=0;" parent="Wgui1w8sPpxk3eTbF6N7-23" vertex="1" collapsed="1">
          <mxGeometry y="20" width="120" height="20" as="geometry">
            <mxRectangle y="20" width="160" height="120" as="alternateBounds" />
          </mxGeometry>
        </mxCell>
        <mxCell id="Wgui1w8sPpxk3eTbF6N7-25" value="channels" style="swimlane;html=1;startSize=20;horizontal=0;" parent="Wgui1w8sPpxk3eTbF6N7-23" vertex="1">
          <mxGeometry y="40" width="120" height="120" as="geometry">
            <mxRectangle y="140" width="200" height="20" as="alternateBounds" />
          </mxGeometry>
        </mxCell>
        <mxCell id="Wgui1w8sPpxk3eTbF6N7-26" value="transient-logs" style="swimlane;html=1;startSize=20;horizontal=0;" parent="Wgui1w8sPpxk3eTbF6N7-23" vertex="1" collapsed="1">
          <mxGeometry y="160" width="120" height="20" as="geometry">
            <mxRectangle y="160" width="160" height="120" as="alternateBounds" />
          </mxGeometry>
        </mxCell>
        <mxCell id="Wgui1w8sPpxk3eTbF6N7-27" value="&lt;span style=&quot;background-color: rgb(248 , 249 , 250)&quot;&gt;bpts&lt;/span&gt;" style="swimlane;html=1;startSize=20;horizontal=0;" parent="Wgui1w8sPpxk3eTbF6N7-23" vertex="1" collapsed="1">
          <mxGeometry y="180" width="120" height="20" as="geometry">
            <mxRectangle y="380" width="200" height="120" as="alternateBounds" />
          </mxGeometry>
        </mxCell>
        <mxCell id="Wgui1w8sPpxk3eTbF6N7-28" value="&lt;span style=&quot;background-color: rgb(248 , 249 , 250)&quot;&gt;polynomials&lt;/span&gt;" style="swimlane;html=1;startSize=20;horizontal=0;" parent="Wgui1w8sPpxk3eTbF6N7-23" vertex="1" collapsed="1">
          <mxGeometry y="200" width="120" height="20" as="geometry">
            <mxRectangle y="500" width="200" height="120" as="alternateBounds" />
          </mxGeometry>
        </mxCell>
        <mxCell id="Wgui1w8sPpxk3eTbF6N7-29" style="edgeStyle=orthogonalEdgeStyle;rounded=0;orthogonalLoop=1;jettySize=auto;html=1;noEdgeStyle=1;orthogonal=1;sketch=1;sketchStyle=rough;" parent="1" source="Wgui1w8sPpxk3eTbF6N7-30" target="Wgui1w8sPpxk3eTbF6N7-42" edge="1">
          <mxGeometry relative="1" as="geometry" />
        </mxCell>
        <mxCell id="JqOLdT1LsUDMldBZ7WH4-13" style="edgeStyle=orthogonalEdgeStyle;rounded=0;orthogonalLoop=1;jettySize=auto;html=1;entryX=0;entryY=0.5;entryDx=0;entryDy=0;" parent="1" source="Wgui1w8sPpxk3eTbF6N7-30" target="JqOLdT1LsUDMldBZ7WH4-1" edge="1">
          <mxGeometry relative="1" as="geometry" />
        </mxCell>
        <mxCell id="Wgui1w8sPpxk3eTbF6N7-30" value="MDS" style="swimlane;html=1;childLayout=stackLayout;resizeParent=1;resizeParentMax=0;horizontal=1;startSize=20;horizontalStack=0;sketch=1;sketchStyle=rough;" parent="1" vertex="1" collapsed="1">
          <mxGeometry x="-4300" y="-1875.003653564453" width="120" height="20" as="geometry">
            <mxRectangle x="410" y="600" width="160" height="120" as="alternateBounds" />
          </mxGeometry>
        </mxCell>
        <mxCell id="Wgui1w8sPpxk3eTbF6N7-31" value="subsystems" style="swimlane;html=1;startSize=20;horizontal=0;" parent="Wgui1w8sPpxk3eTbF6N7-30" vertex="1" collapsed="1">
          <mxGeometry y="20" width="120" height="20" as="geometry">
            <mxRectangle y="20" width="160" height="120" as="alternateBounds" />
          </mxGeometry>
        </mxCell>
        <mxCell id="Wgui1w8sPpxk3eTbF6N7-32" value="channels" style="swimlane;html=1;startSize=20;horizontal=0;" parent="Wgui1w8sPpxk3eTbF6N7-30" vertex="1" collapsed="1">
          <mxGeometry y="40" width="120" height="20" as="geometry">
            <mxRectangle y="40" width="160" height="120" as="alternateBounds" />
          </mxGeometry>
        </mxCell>
        <mxCell id="Wgui1w8sPpxk3eTbF6N7-33" value="transient-logs" style="swimlane;html=1;startSize=20;horizontal=0;" parent="Wgui1w8sPpxk3eTbF6N7-30" vertex="1" collapsed="1">
          <mxGeometry y="60" width="120" height="20" as="geometry">
            <mxRectangle y="60" width="160" height="120" as="alternateBounds" />
          </mxGeometry>
        </mxCell>
        <mxCell id="Wgui1w8sPpxk3eTbF6N7-34" value="&lt;span style=&quot;background-color: rgb(248 , 249 , 250)&quot;&gt;bpts&lt;/span&gt;" style="swimlane;html=1;startSize=20;horizontal=0;" parent="Wgui1w8sPpxk3eTbF6N7-30" vertex="1" collapsed="1">
          <mxGeometry y="80" width="120" height="20" as="geometry">
            <mxRectangle y="380" width="200" height="120" as="alternateBounds" />
          </mxGeometry>
        </mxCell>
        <mxCell id="Wgui1w8sPpxk3eTbF6N7-35" value="&lt;span style=&quot;background-color: rgb(248 , 249 , 250)&quot;&gt;polynomials&lt;/span&gt;" style="swimlane;html=1;startSize=20;horizontal=0;" parent="Wgui1w8sPpxk3eTbF6N7-30" vertex="1" collapsed="1">
          <mxGeometry y="100" width="120" height="20" as="geometry">
            <mxRectangle y="500" width="200" height="120" as="alternateBounds" />
          </mxGeometry>
        </mxCell>
        <mxCell id="Wgui1w8sPpxk3eTbF6N7-36" style="edgeStyle=orthogonalEdgeStyle;rounded=0;orthogonalLoop=1;jettySize=auto;html=1;entryX=0;entryY=0.5;entryDx=0;entryDy=0;noEdgeStyle=1;orthogonal=1;sketch=1;sketchStyle=rough;" parent="1" source="Wgui1w8sPpxk3eTbF6N7-42" target="Wgui1w8sPpxk3eTbF6N7-48" edge="1">
          <mxGeometry relative="1" as="geometry" />
        </mxCell>
        <mxCell id="Wgui1w8sPpxk3eTbF6N7-37" style="edgeStyle=orthogonalEdgeStyle;rounded=0;orthogonalLoop=1;jettySize=auto;html=1;entryX=0;entryY=0.5;entryDx=0;entryDy=0;noEdgeStyle=1;orthogonal=1;sketch=1;sketchStyle=rough;" parent="1" source="Wgui1w8sPpxk3eTbF6N7-42" target="Wgui1w8sPpxk3eTbF6N7-57" edge="1">
          <mxGeometry relative="1" as="geometry" />
        </mxCell>
        <mxCell id="Wgui1w8sPpxk3eTbF6N7-38" style="edgeStyle=orthogonalEdgeStyle;rounded=0;orthogonalLoop=1;jettySize=auto;html=1;entryX=0;entryY=0.5;entryDx=0;entryDy=0;noEdgeStyle=1;orthogonal=1;sketch=1;sketchStyle=rough;" parent="1" source="Wgui1w8sPpxk3eTbF6N7-42" target="Wgui1w8sPpxk3eTbF6N7-64" edge="1">
          <mxGeometry relative="1" as="geometry" />
        </mxCell>
        <mxCell id="Wgui1w8sPpxk3eTbF6N7-39" style="edgeStyle=orthogonalEdgeStyle;rounded=0;orthogonalLoop=1;jettySize=auto;html=1;entryX=0;entryY=0.5;entryDx=0;entryDy=0;noEdgeStyle=1;orthogonal=1;sketch=1;sketchStyle=rough;" parent="1" source="Wgui1w8sPpxk3eTbF6N7-42" target="Wgui1w8sPpxk3eTbF6N7-71" edge="1">
          <mxGeometry relative="1" as="geometry" />
        </mxCell>
        <mxCell id="Wgui1w8sPpxk3eTbF6N7-40" style="edgeStyle=orthogonalEdgeStyle;rounded=0;orthogonalLoop=1;jettySize=auto;html=1;entryX=0;entryY=0.5;entryDx=0;entryDy=0;noEdgeStyle=1;orthogonal=1;sketch=1;sketchStyle=rough;" parent="1" source="Wgui1w8sPpxk3eTbF6N7-42" target="Wgui1w8sPpxk3eTbF6N7-78" edge="1">
          <mxGeometry relative="1" as="geometry" />
        </mxCell>
        <mxCell id="Wgui1w8sPpxk3eTbF6N7-41" style="edgeStyle=orthogonalEdgeStyle;rounded=0;orthogonalLoop=1;jettySize=auto;html=1;entryX=0;entryY=0.5;entryDx=0;entryDy=0;noEdgeStyle=1;orthogonal=1;sketch=1;sketchStyle=rough;" parent="1" source="Wgui1w8sPpxk3eTbF6N7-42" target="Wgui1w8sPpxk3eTbF6N7-85" edge="1">
          <mxGeometry relative="1" as="geometry" />
        </mxCell>
        <mxCell id="Wgui1w8sPpxk3eTbF6N7-42" value="In-House" style="swimlane;html=1;childLayout=stackLayout;resizeParent=1;resizeParentMax=0;horizontal=1;startSize=20;horizontalStack=0;sketch=1;sketchStyle=rough;" parent="1" vertex="1" collapsed="1">
          <mxGeometry x="-4100" y="-2330.003653564453" width="120" height="20" as="geometry">
            <mxRectangle x="670" y="250" width="160" height="120" as="alternateBounds" />
          </mxGeometry>
        </mxCell>
        <mxCell id="Wgui1w8sPpxk3eTbF6N7-43" value="subsystems" style="swimlane;html=1;startSize=20;horizontal=0;" parent="Wgui1w8sPpxk3eTbF6N7-42" vertex="1" collapsed="1">
          <mxGeometry y="20" width="120" height="20" as="geometry">
            <mxRectangle y="20" width="160" height="120" as="alternateBounds" />
          </mxGeometry>
        </mxCell>
        <mxCell id="Wgui1w8sPpxk3eTbF6N7-44" value="channels" style="swimlane;html=1;startSize=20;horizontal=0;" parent="Wgui1w8sPpxk3eTbF6N7-42" vertex="1" collapsed="1">
          <mxGeometry y="40" width="120" height="20" as="geometry">
            <mxRectangle y="40" width="160" height="120" as="alternateBounds" />
          </mxGeometry>
        </mxCell>
        <mxCell id="Wgui1w8sPpxk3eTbF6N7-45" value="transient-logs" style="swimlane;html=1;startSize=20;horizontal=0;" parent="Wgui1w8sPpxk3eTbF6N7-42" vertex="1" collapsed="1">
          <mxGeometry y="60" width="120" height="20" as="geometry">
            <mxRectangle y="60" width="160" height="120" as="alternateBounds" />
          </mxGeometry>
        </mxCell>
        <mxCell id="Wgui1w8sPpxk3eTbF6N7-46" value="&lt;span style=&quot;background-color: rgb(248 , 249 , 250)&quot;&gt;bpts&lt;/span&gt;" style="swimlane;html=1;startSize=20;horizontal=0;" parent="Wgui1w8sPpxk3eTbF6N7-42" vertex="1" collapsed="1">
          <mxGeometry y="80" width="120" height="20" as="geometry">
            <mxRectangle y="380" width="200" height="120" as="alternateBounds" />
          </mxGeometry>
        </mxCell>
        <mxCell id="Wgui1w8sPpxk3eTbF6N7-47" value="&lt;span style=&quot;background-color: rgb(248 , 249 , 250)&quot;&gt;polynomials&lt;/span&gt;" style="swimlane;html=1;startSize=20;horizontal=0;" parent="Wgui1w8sPpxk3eTbF6N7-42" vertex="1" collapsed="1">
          <mxGeometry y="100" width="120" height="20" as="geometry">
            <mxRectangle y="500" width="200" height="120" as="alternateBounds" />
          </mxGeometry>
        </mxCell>
        <mxCell id="Wgui1w8sPpxk3eTbF6N7-48" value="Demo_Calculations" style="swimlane;html=1;childLayout=stackLayout;resizeParent=1;resizeParentMax=0;horizontal=1;startSize=20;horizontalStack=0;sketch=1;sketchStyle=rough;rounded=0;gradientColor=#97d077;fillColor=#d5e8d4;strokeColor=#82b366;" parent="1" vertex="1">
          <mxGeometry x="-3900" y="-3180.003653564453" width="240" height="420" as="geometry">
            <mxRectangle x="750" y="450" width="120" height="20" as="alternateBounds" />
          </mxGeometry>
        </mxCell>
        <mxCell id="Wgui1w8sPpxk3eTbF6N7-49" value="subsystems" style="swimlane;html=1;startSize=20;horizontal=0;" parent="Wgui1w8sPpxk3eTbF6N7-48" vertex="1" collapsed="1">
          <mxGeometry y="20" width="240" height="20" as="geometry">
            <mxRectangle y="20" width="160" height="120" as="alternateBounds" />
          </mxGeometry>
        </mxCell>
        <mxCell id="Wgui1w8sPpxk3eTbF6N7-50" value="channels" style="swimlane;html=1;startSize=20;horizontal=0;" parent="Wgui1w8sPpxk3eTbF6N7-48" vertex="1">
          <mxGeometry y="40" width="240" height="120" as="geometry">
            <mxRectangle y="40" width="160" height="20" as="alternateBounds" />
          </mxGeometry>
        </mxCell>
        <mxCell id="Wgui1w8sPpxk3eTbF6N7-51" value="&lt;ul&gt;&lt;li&gt;Demo Sim Jet Engine&lt;/li&gt;&lt;li&gt;&lt;span&gt;GID 6201-6800&lt;/span&gt;&lt;br&gt;&lt;/li&gt;&lt;/ul&gt;" style="text;align=left;verticalAlign=middle;resizable=0;points=[];autosize=1;fontSize=10;fontFamily=Comic Sans MS;rounded=0;sketch=0;html=1;comic=0;" parent="Wgui1w8sPpxk3eTbF6N7-50" vertex="1">
          <mxGeometry x="20" y="-1.4210854715202004e-14" width="150" height="50" as="geometry" />
        </mxCell>
        <mxCell id="Wgui1w8sPpxk3eTbF6N7-52" value="transient-logs" style="swimlane;html=1;startSize=20;horizontal=0;" parent="Wgui1w8sPpxk3eTbF6N7-48" vertex="1" collapsed="1">
          <mxGeometry y="160" width="240" height="20" as="geometry">
            <mxRectangle y="60" width="160" height="120" as="alternateBounds" />
          </mxGeometry>
        </mxCell>
        <mxCell id="Wgui1w8sPpxk3eTbF6N7-53" value="&lt;span style=&quot;background-color: rgb(248 , 249 , 250)&quot;&gt;bpts&lt;/span&gt;" style="swimlane;html=1;startSize=20;horizontal=0;" parent="Wgui1w8sPpxk3eTbF6N7-48" vertex="1">
          <mxGeometry y="180" width="240" height="120" as="geometry">
            <mxRectangle y="180" width="240" height="20" as="alternateBounds" />
          </mxGeometry>
        </mxCell>
        <mxCell id="Wgui1w8sPpxk3eTbF6N7-55" value="&lt;span style=&quot;background-color: rgb(248 , 249 , 250)&quot;&gt;polynomials&lt;/span&gt;" style="swimlane;html=1;startSize=20;horizontal=0;" parent="Wgui1w8sPpxk3eTbF6N7-48" vertex="1">
          <mxGeometry y="300" width="240" height="120" as="geometry">
            <mxRectangle y="300" width="240" height="20" as="alternateBounds" />
          </mxGeometry>
        </mxCell>
        <mxCell id="Wgui1w8sPpxk3eTbF6N7-57" value="Cubes" style="swimlane;html=1;childLayout=stackLayout;resizeParent=1;resizeParentMax=0;horizontal=1;startSize=20;horizontalStack=0;sketch=1;sketchStyle=rough;gradientColor=#ffa500;fillColor=#ffcd28;strokeColor=#d79b00;" parent="1" vertex="1">
          <mxGeometry x="-3660" y="-2750" width="260" height="250" as="geometry">
            <mxRectangle x="750" y="510" width="120" height="20" as="alternateBounds" />
          </mxGeometry>
        </mxCell>
        <mxCell id="Wgui1w8sPpxk3eTbF6N7-58" value="subsystems" style="swimlane;html=1;startSize=20;horizontal=0;" parent="Wgui1w8sPpxk3eTbF6N7-57" vertex="1" collapsed="1">
          <mxGeometry y="20" width="260" height="20" as="geometry">
            <mxRectangle y="20" width="160" height="120" as="alternateBounds" />
          </mxGeometry>
        </mxCell>
        <mxCell id="Wgui1w8sPpxk3eTbF6N7-59" value="channels" style="swimlane;html=1;startSize=20;horizontal=0;" parent="Wgui1w8sPpxk3eTbF6N7-57" vertex="1">
          <mxGeometry y="40" width="260" height="150" as="geometry">
            <mxRectangle y="40" width="160" height="20" as="alternateBounds" />
          </mxGeometry>
        </mxCell>
        <mxCell id="Wgui1w8sPpxk3eTbF6N7-60" value="&lt;ul&gt;&lt;li&gt;Cube 1 Standard&lt;/li&gt;&lt;ul&gt;&lt;li&gt;1 Channel (not working)&lt;/li&gt;&lt;li&gt;Cube1_Dev1-RTD_Ch01-12&lt;br&gt;&lt;/li&gt;&lt;li&gt;Cube1_Dev2-AVI_Ch01-08&lt;br&gt;&lt;/li&gt;&lt;li&gt;Cube1_Dev3-ACI_Ch01-08&lt;br&gt;&lt;/li&gt;&lt;li&gt;GID 10001-10028&lt;/li&gt;&lt;/ul&gt;&lt;li&gt;&lt;span&gt;Cube 2 Rugged&lt;/span&gt;&lt;br&gt;&lt;/li&gt;&lt;ul&gt;&lt;li&gt;&lt;span&gt;import config RobS from MSIL&lt;/span&gt;&lt;/li&gt;&lt;/ul&gt;&lt;li&gt;Cube 3 Rugged&lt;/li&gt;&lt;ul&gt;&lt;li&gt;import config RobS from MSIL&lt;/li&gt;&lt;/ul&gt;&lt;li&gt;&lt;strike&gt;Channel naming convention to be&amp;nbsp;&lt;br&gt;provided by MarkJ Earl&lt;/strike&gt;&lt;/li&gt;&lt;ul&gt;&lt;li&gt;&lt;br&gt;&lt;/li&gt;&lt;/ul&gt;&lt;/ul&gt;" style="text;align=left;verticalAlign=middle;resizable=0;points=[];autosize=1;fontSize=10;fontFamily=Comic Sans MS;rounded=0;sketch=0;html=1;" parent="Wgui1w8sPpxk3eTbF6N7-59" vertex="1">
          <mxGeometry x="20" width="240" height="180" as="geometry" />
        </mxCell>
        <mxCell id="Wgui1w8sPpxk3eTbF6N7-61" value="transient-logs" style="swimlane;html=1;startSize=20;horizontal=0;" parent="Wgui1w8sPpxk3eTbF6N7-57" vertex="1" collapsed="1">
          <mxGeometry y="190" width="260" height="20" as="geometry">
            <mxRectangle y="60" width="160" height="120" as="alternateBounds" />
          </mxGeometry>
        </mxCell>
        <mxCell id="Wgui1w8sPpxk3eTbF6N7-62" value="&lt;span style=&quot;background-color: rgb(248 , 249 , 250)&quot;&gt;bpts&lt;/span&gt;" style="swimlane;html=1;startSize=20;horizontal=0;" parent="Wgui1w8sPpxk3eTbF6N7-57" vertex="1" collapsed="1">
          <mxGeometry y="210" width="260" height="20" as="geometry">
            <mxRectangle y="380" width="200" height="120" as="alternateBounds" />
          </mxGeometry>
        </mxCell>
        <mxCell id="Wgui1w8sPpxk3eTbF6N7-63" value="&lt;span style=&quot;background-color: rgb(248 , 249 , 250)&quot;&gt;polynomials&lt;/span&gt;" style="swimlane;html=1;startSize=20;horizontal=0;" parent="Wgui1w8sPpxk3eTbF6N7-57" vertex="1" collapsed="1">
          <mxGeometry y="230" width="260" height="20" as="geometry">
            <mxRectangle y="500" width="200" height="120" as="alternateBounds" />
          </mxGeometry>
        </mxCell>
        <mxCell id="Wgui1w8sPpxk3eTbF6N7-64" value="DTS" style="swimlane;html=1;childLayout=stackLayout;resizeParent=1;resizeParentMax=0;horizontal=1;startSize=20;horizontalStack=0;sketch=1;sketchStyle=rough;gradientColor=#97d077;fillColor=#d5e8d4;strokeColor=#82b366;" parent="1" vertex="1">
          <mxGeometry x="-3900" y="-2460.003653564453" width="240" height="220" as="geometry">
            <mxRectangle x="1280" y="400" width="120" height="20" as="alternateBounds" />
          </mxGeometry>
        </mxCell>
        <mxCell id="Wgui1w8sPpxk3eTbF6N7-65" value="subsystems" style="swimlane;html=1;startSize=20;horizontal=0;" parent="Wgui1w8sPpxk3eTbF6N7-64" vertex="1" collapsed="1">
          <mxGeometry y="20" width="240" height="20" as="geometry">
            <mxRectangle y="20" width="160" height="120" as="alternateBounds" />
          </mxGeometry>
        </mxCell>
        <mxCell id="Wgui1w8sPpxk3eTbF6N7-66" value="channels" style="swimlane;html=1;startSize=20;horizontal=0;" parent="Wgui1w8sPpxk3eTbF6N7-64" vertex="1">
          <mxGeometry y="40" width="240" height="120" as="geometry">
            <mxRectangle y="40" width="160" height="20" as="alternateBounds" />
          </mxGeometry>
        </mxCell>
        <mxCell id="Wgui1w8sPpxk3eTbF6N7-67" value="&lt;ul&gt;&lt;li&gt;All channels/ports/pinout defined&lt;/li&gt;&lt;li&gt;DTS1124_01 to _16&lt;/li&gt;&lt;li&gt;DTS1125_01 to _16&lt;/li&gt;&lt;li&gt;DTS1126_01 to _16&lt;/li&gt;&lt;li&gt;DTS1127_01 to _16&lt;/li&gt;&lt;li&gt;GID 1001-1064&lt;/li&gt;&lt;/ul&gt;" style="text;align=left;verticalAlign=middle;resizable=0;points=[];autosize=1;fontSize=10;fontFamily=Comic Sans MS;rounded=0;sketch=0;html=1;" parent="Wgui1w8sPpxk3eTbF6N7-66" vertex="1">
          <mxGeometry x="20" y="5" width="210" height="100" as="geometry" />
        </mxCell>
        <mxCell id="Wgui1w8sPpxk3eTbF6N7-68" value="transient-logs" style="swimlane;html=1;startSize=20;horizontal=0;" parent="Wgui1w8sPpxk3eTbF6N7-64" vertex="1" collapsed="1">
          <mxGeometry y="160" width="240" height="20" as="geometry">
            <mxRectangle y="60" width="160" height="120" as="alternateBounds" />
          </mxGeometry>
        </mxCell>
        <mxCell id="Wgui1w8sPpxk3eTbF6N7-69" value="&lt;span style=&quot;background-color: rgb(248 , 249 , 250)&quot;&gt;bpts&lt;/span&gt;" style="swimlane;html=1;startSize=20;horizontal=0;" parent="Wgui1w8sPpxk3eTbF6N7-64" vertex="1" collapsed="1">
          <mxGeometry y="180" width="240" height="20" as="geometry">
            <mxRectangle y="380" width="200" height="120" as="alternateBounds" />
          </mxGeometry>
        </mxCell>
        <mxCell id="Wgui1w8sPpxk3eTbF6N7-70" value="&lt;span style=&quot;background-color: rgb(248 , 249 , 250)&quot;&gt;polynomials&lt;/span&gt;" style="swimlane;html=1;startSize=20;horizontal=0;" parent="Wgui1w8sPpxk3eTbF6N7-64" vertex="1" collapsed="1">
          <mxGeometry y="200" width="240" height="20" as="geometry">
            <mxRectangle y="500" width="200" height="120" as="alternateBounds" />
          </mxGeometry>
        </mxCell>
        <mxCell id="Wgui1w8sPpxk3eTbF6N7-71" value="PBS" style="swimlane;html=1;childLayout=stackLayout;resizeParent=1;resizeParentMax=0;horizontal=1;startSize=20;horizontalStack=0;sketch=1;sketchStyle=rough;gradientColor=#97d077;fillColor=#d5e8d4;strokeColor=#82b366;" parent="1" vertex="1">
          <mxGeometry x="-3900" y="-2200.003653564453" width="240" height="220" as="geometry">
            <mxRectangle x="1280" y="1040" width="240" height="20" as="alternateBounds" />
          </mxGeometry>
        </mxCell>
        <mxCell id="Wgui1w8sPpxk3eTbF6N7-72" value="subsystems" style="swimlane;html=1;startSize=20;horizontal=0;" parent="Wgui1w8sPpxk3eTbF6N7-71" vertex="1" collapsed="1">
          <mxGeometry y="20" width="240" height="20" as="geometry">
            <mxRectangle y="20" width="160" height="120" as="alternateBounds" />
          </mxGeometry>
        </mxCell>
        <mxCell id="Wgui1w8sPpxk3eTbF6N7-73" value="channels" style="swimlane;html=1;startSize=20;horizontal=0;" parent="Wgui1w8sPpxk3eTbF6N7-71" vertex="1">
          <mxGeometry y="40" width="240" height="120" as="geometry">
            <mxRectangle y="40" width="160" height="20" as="alternateBounds" />
          </mxGeometry>
        </mxCell>
        <mxCell id="Wgui1w8sPpxk3eTbF6N7-74" value="&lt;ul&gt;&lt;li&gt;All channels/ports/pinout defined&lt;/li&gt;&lt;li&gt;PBS21270_01 to _16&lt;/li&gt;&lt;li&gt;PBS21271_01 to _16&lt;/li&gt;&lt;li&gt;&lt;span&gt;GID 1-32&lt;/span&gt;&lt;br&gt;&lt;/li&gt;&lt;/ul&gt;" style="text;align=left;verticalAlign=middle;resizable=0;points=[];autosize=1;fontSize=10;fontFamily=Comic Sans MS;rounded=0;sketch=0;html=1;" parent="Wgui1w8sPpxk3eTbF6N7-73" vertex="1">
          <mxGeometry x="20" width="210" height="70" as="geometry" />
        </mxCell>
        <mxCell id="Wgui1w8sPpxk3eTbF6N7-75" value="transient-logs" style="swimlane;html=1;startSize=20;horizontal=0;" parent="Wgui1w8sPpxk3eTbF6N7-71" vertex="1" collapsed="1">
          <mxGeometry y="160" width="240" height="20" as="geometry">
            <mxRectangle y="60" width="160" height="120" as="alternateBounds" />
          </mxGeometry>
        </mxCell>
        <mxCell id="Wgui1w8sPpxk3eTbF6N7-76" value="&lt;span style=&quot;background-color: rgb(248 , 249 , 250)&quot;&gt;bpts&lt;/span&gt;" style="swimlane;html=1;startSize=20;horizontal=0;" parent="Wgui1w8sPpxk3eTbF6N7-71" vertex="1" collapsed="1">
          <mxGeometry y="180" width="240" height="20" as="geometry">
            <mxRectangle y="380" width="200" height="120" as="alternateBounds" />
          </mxGeometry>
        </mxCell>
        <mxCell id="Wgui1w8sPpxk3eTbF6N7-77" value="&lt;span style=&quot;background-color: rgb(248 , 249 , 250)&quot;&gt;polynomials&lt;/span&gt;" style="swimlane;html=1;startSize=20;horizontal=0;" parent="Wgui1w8sPpxk3eTbF6N7-71" vertex="1" collapsed="1">
          <mxGeometry y="200" width="240" height="20" as="geometry">
            <mxRectangle y="500" width="200" height="120" as="alternateBounds" />
          </mxGeometry>
        </mxCell>
        <mxCell id="Wgui1w8sPpxk3eTbF6N7-78" value="ARINC_Simulator" style="swimlane;html=1;childLayout=stackLayout;resizeParent=1;resizeParentMax=0;horizontal=1;startSize=20;horizontalStack=0;sketch=1;sketchStyle=rough;gradientColor=#ffd966;fillColor=#fff2cc;strokeColor=#d6b656;" parent="1" vertex="1">
          <mxGeometry x="-3900" y="-1940.003653564453" width="240" height="220" as="geometry">
            <mxRectangle x="1150" y="750" width="120" height="20" as="alternateBounds" />
          </mxGeometry>
        </mxCell>
        <mxCell id="Wgui1w8sPpxk3eTbF6N7-79" value="subsystems" style="swimlane;html=1;startSize=20;horizontal=0;" parent="Wgui1w8sPpxk3eTbF6N7-78" vertex="1" collapsed="1">
          <mxGeometry y="20" width="240" height="20" as="geometry">
            <mxRectangle y="20" width="160" height="120" as="alternateBounds" />
          </mxGeometry>
        </mxCell>
        <mxCell id="Wgui1w8sPpxk3eTbF6N7-80" value="channels" style="swimlane;html=1;startSize=20;horizontal=0;" parent="Wgui1w8sPpxk3eTbF6N7-78" vertex="1">
          <mxGeometry y="40" width="240" height="120" as="geometry">
            <mxRectangle y="40" width="160" height="20" as="alternateBounds" />
          </mxGeometry>
        </mxCell>
        <mxCell id="Wgui1w8sPpxk3eTbF6N7-81" value="&lt;ul&gt;&lt;li&gt;Channels loopback simulator&lt;/li&gt;&lt;ul&gt;&lt;li&gt;Quantity TBD&lt;/li&gt;&lt;li&gt;Cable JLD&lt;/li&gt;&lt;/ul&gt;&lt;/ul&gt;" style="text;align=left;verticalAlign=middle;resizable=0;points=[];autosize=1;fontSize=10;fontFamily=Comic Sans MS;rounded=0;sketch=0;html=1;" parent="Wgui1w8sPpxk3eTbF6N7-80" vertex="1">
          <mxGeometry x="20" width="190" height="60" as="geometry" />
        </mxCell>
        <mxCell id="Wgui1w8sPpxk3eTbF6N7-82" value="transient-logs" style="swimlane;html=1;startSize=20;horizontal=0;" parent="Wgui1w8sPpxk3eTbF6N7-78" vertex="1" collapsed="1">
          <mxGeometry y="160" width="240" height="20" as="geometry">
            <mxRectangle y="60" width="160" height="120" as="alternateBounds" />
          </mxGeometry>
        </mxCell>
        <mxCell id="Wgui1w8sPpxk3eTbF6N7-83" value="&lt;span style=&quot;background-color: rgb(248 , 249 , 250)&quot;&gt;bpts&lt;/span&gt;" style="swimlane;html=1;startSize=20;horizontal=0;" parent="Wgui1w8sPpxk3eTbF6N7-78" vertex="1" collapsed="1">
          <mxGeometry y="180" width="240" height="20" as="geometry">
            <mxRectangle y="380" width="200" height="120" as="alternateBounds" />
          </mxGeometry>
        </mxCell>
        <mxCell id="Wgui1w8sPpxk3eTbF6N7-84" value="&lt;span style=&quot;background-color: rgb(248 , 249 , 250)&quot;&gt;polynomials&lt;/span&gt;" style="swimlane;html=1;startSize=20;horizontal=0;" parent="Wgui1w8sPpxk3eTbF6N7-78" vertex="1" collapsed="1">
          <mxGeometry y="200" width="240" height="20" as="geometry">
            <mxRectangle y="500" width="200" height="120" as="alternateBounds" />
          </mxGeometry>
        </mxCell>
        <mxCell id="Wgui1w8sPpxk3eTbF6N7-85" value="FCS" style="swimlane;html=1;childLayout=stackLayout;resizeParent=1;resizeParentMax=0;horizontal=1;startSize=20;horizontalStack=0;sketch=1;sketchStyle=rough;gradientColor=#ffa500;fillColor=#ffcd28;strokeColor=#d79b00;" parent="1" vertex="1">
          <mxGeometry x="-3900" y="-1680.003653564453" width="240" height="220" as="geometry">
            <mxRectangle x="750" y="750" width="120" height="20" as="alternateBounds" />
          </mxGeometry>
        </mxCell>
        <mxCell id="Wgui1w8sPpxk3eTbF6N7-86" value="subsystems" style="swimlane;html=1;startSize=20;horizontal=0;" parent="Wgui1w8sPpxk3eTbF6N7-85" vertex="1" collapsed="1">
          <mxGeometry y="20" width="240" height="20" as="geometry">
            <mxRectangle y="20" width="160" height="120" as="alternateBounds" />
          </mxGeometry>
        </mxCell>
        <mxCell id="Wgui1w8sPpxk3eTbF6N7-87" value="channels" style="swimlane;html=1;startSize=20;horizontal=0;" parent="Wgui1w8sPpxk3eTbF6N7-85" vertex="1">
          <mxGeometry y="40" width="240" height="120" as="geometry">
            <mxRectangle y="40" width="160" height="20" as="alternateBounds" />
          </mxGeometry>
        </mxCell>
        <mxCell id="Wgui1w8sPpxk3eTbF6N7-88" value="&lt;ul&gt;&lt;li&gt;Channels from Alex R&lt;/li&gt;&lt;/ul&gt;" style="text;align=left;verticalAlign=middle;resizable=0;points=[];autosize=1;fontSize=10;fontFamily=Comic Sans MS;rounded=0;sketch=0;html=1;" parent="Wgui1w8sPpxk3eTbF6N7-87" vertex="1">
          <mxGeometry x="20" width="160" height="40" as="geometry" />
        </mxCell>
        <mxCell id="Wgui1w8sPpxk3eTbF6N7-89" value="transient-logs" style="swimlane;html=1;startSize=20;horizontal=0;" parent="Wgui1w8sPpxk3eTbF6N7-85" vertex="1" collapsed="1">
          <mxGeometry y="160" width="240" height="20" as="geometry">
            <mxRectangle y="60" width="160" height="120" as="alternateBounds" />
          </mxGeometry>
        </mxCell>
        <mxCell id="Wgui1w8sPpxk3eTbF6N7-90" value="&lt;span style=&quot;background-color: rgb(248 , 249 , 250)&quot;&gt;bpts&lt;/span&gt;" style="swimlane;html=1;startSize=20;horizontal=0;" parent="Wgui1w8sPpxk3eTbF6N7-85" vertex="1" collapsed="1">
          <mxGeometry y="180" width="240" height="20" as="geometry">
            <mxRectangle y="380" width="200" height="120" as="alternateBounds" />
          </mxGeometry>
        </mxCell>
        <mxCell id="Wgui1w8sPpxk3eTbF6N7-91" value="&lt;span style=&quot;background-color: rgb(248 , 249 , 250)&quot;&gt;polynomials&lt;/span&gt;" style="swimlane;html=1;startSize=20;horizontal=0;" parent="Wgui1w8sPpxk3eTbF6N7-85" vertex="1" collapsed="1">
          <mxGeometry y="200" width="240" height="20" as="geometry">
            <mxRectangle y="500" width="200" height="120" as="alternateBounds" />
          </mxGeometry>
        </mxCell>
        <mxCell id="Wgui1w8sPpxk3eTbF6N7-92" style="edgeStyle=orthogonalEdgeStyle;rounded=0;orthogonalLoop=1;jettySize=auto;html=1;entryX=0;entryY=0.5;entryDx=0;entryDy=0;noEdgeStyle=1;orthogonal=1;sketch=1;sketchStyle=rough;fillColor=#f5f5f5;strokeColor=#666666;gradientColor=#b3b3b3;" parent="1" source="Wgui1w8sPpxk3eTbF6N7-93" target="Wgui1w8sPpxk3eTbF6N7-127" edge="1">
          <mxGeometry relative="1" as="geometry" />
        </mxCell>
        <mxCell id="Wgui1w8sPpxk3eTbF6N7-93" value="CFM56-7B" style="swimlane;html=1;childLayout=stackLayout;resizeParent=1;resizeParentMax=0;horizontal=1;startSize=20;horizontalStack=0;sketch=1;sketchStyle=rough;fillColor=#f5f5f5;strokeColor=#666666;gradientColor=#b3b3b3;" parent="1" vertex="1" collapsed="1">
          <mxGeometry x="-4610" y="-1300.003653564453" width="120" height="20" as="geometry">
            <mxRectangle x="240" y="720" width="160" height="220" as="alternateBounds" />
          </mxGeometry>
        </mxCell>
        <mxCell id="Wgui1w8sPpxk3eTbF6N7-94" value="subsystems" style="swimlane;html=1;startSize=20;horizontal=0;" parent="Wgui1w8sPpxk3eTbF6N7-93" vertex="1" collapsed="1">
          <mxGeometry y="20" width="120" height="20" as="geometry">
            <mxRectangle y="20" width="160" height="120" as="alternateBounds" />
          </mxGeometry>
        </mxCell>
        <mxCell id="Wgui1w8sPpxk3eTbF6N7-95" value="channels" style="swimlane;html=1;startSize=20;horizontal=0;" parent="Wgui1w8sPpxk3eTbF6N7-93" vertex="1">
          <mxGeometry y="40" width="120" height="120" as="geometry">
            <mxRectangle y="140" width="200" height="20" as="alternateBounds" />
          </mxGeometry>
        </mxCell>
        <mxCell id="Wgui1w8sPpxk3eTbF6N7-96" value="transient-logs" style="swimlane;html=1;startSize=20;horizontal=0;" parent="Wgui1w8sPpxk3eTbF6N7-93" vertex="1" collapsed="1">
          <mxGeometry y="160" width="120" height="20" as="geometry">
            <mxRectangle y="160" width="160" height="120" as="alternateBounds" />
          </mxGeometry>
        </mxCell>
        <mxCell id="Wgui1w8sPpxk3eTbF6N7-97" value="&lt;span style=&quot;background-color: rgb(248 , 249 , 250)&quot;&gt;bpts&lt;/span&gt;" style="swimlane;html=1;startSize=20;horizontal=0;" parent="Wgui1w8sPpxk3eTbF6N7-93" vertex="1" collapsed="1">
          <mxGeometry y="180" width="120" height="20" as="geometry">
            <mxRectangle y="380" width="200" height="120" as="alternateBounds" />
          </mxGeometry>
        </mxCell>
        <mxCell id="Wgui1w8sPpxk3eTbF6N7-98" value="&lt;span style=&quot;background-color: rgb(248 , 249 , 250)&quot;&gt;polynomials&lt;/span&gt;" style="swimlane;html=1;startSize=20;horizontal=0;" parent="Wgui1w8sPpxk3eTbF6N7-93" vertex="1" collapsed="1">
          <mxGeometry y="200" width="120" height="20" as="geometry">
            <mxRectangle y="500" width="200" height="120" as="alternateBounds" />
          </mxGeometry>
        </mxCell>
        <mxCell id="Wgui1w8sPpxk3eTbF6N7-99" style="edgeStyle=orthogonalEdgeStyle;rounded=0;orthogonalLoop=1;jettySize=auto;html=1;entryX=0;entryY=0.5;entryDx=0;entryDy=0;noEdgeStyle=1;orthogonal=1;sketch=1;sketchStyle=rough;fillColor=#f5f5f5;strokeColor=#666666;gradientColor=#b3b3b3;" parent="1" source="Wgui1w8sPpxk3eTbF6N7-100" target="Wgui1w8sPpxk3eTbF6N7-147" edge="1">
          <mxGeometry relative="1" as="geometry" />
        </mxCell>
        <mxCell id="Wgui1w8sPpxk3eTbF6N7-100" value="CF6-80C2" style="swimlane;html=1;childLayout=stackLayout;resizeParent=1;resizeParentMax=0;horizontal=1;startSize=20;horizontalStack=0;sketch=1;sketchStyle=rough;fillColor=#f5f5f5;strokeColor=#666666;gradientColor=#b3b3b3;" parent="1" vertex="1" collapsed="1">
          <mxGeometry x="-4610" y="-1240.003653564453" width="120" height="20" as="geometry">
            <mxRectangle x="240" y="720" width="160" height="220" as="alternateBounds" />
          </mxGeometry>
        </mxCell>
        <mxCell id="Wgui1w8sPpxk3eTbF6N7-101" value="subsystems" style="swimlane;html=1;startSize=20;horizontal=0;" parent="Wgui1w8sPpxk3eTbF6N7-100" vertex="1" collapsed="1">
          <mxGeometry y="20" width="120" height="20" as="geometry">
            <mxRectangle y="20" width="160" height="120" as="alternateBounds" />
          </mxGeometry>
        </mxCell>
        <mxCell id="Wgui1w8sPpxk3eTbF6N7-102" value="channels" style="swimlane;html=1;startSize=20;horizontal=0;" parent="Wgui1w8sPpxk3eTbF6N7-100" vertex="1">
          <mxGeometry y="40" width="120" height="120" as="geometry">
            <mxRectangle y="140" width="200" height="20" as="alternateBounds" />
          </mxGeometry>
        </mxCell>
        <mxCell id="Wgui1w8sPpxk3eTbF6N7-103" value="transient-logs" style="swimlane;html=1;startSize=20;horizontal=0;" parent="Wgui1w8sPpxk3eTbF6N7-100" vertex="1" collapsed="1">
          <mxGeometry y="160" width="120" height="20" as="geometry">
            <mxRectangle y="160" width="160" height="120" as="alternateBounds" />
          </mxGeometry>
        </mxCell>
        <mxCell id="Wgui1w8sPpxk3eTbF6N7-104" value="&lt;span style=&quot;background-color: rgb(248 , 249 , 250)&quot;&gt;bpts&lt;/span&gt;" style="swimlane;html=1;startSize=20;horizontal=0;" parent="Wgui1w8sPpxk3eTbF6N7-100" vertex="1" collapsed="1">
          <mxGeometry y="180" width="120" height="20" as="geometry">
            <mxRectangle y="380" width="200" height="120" as="alternateBounds" />
          </mxGeometry>
        </mxCell>
        <mxCell id="Wgui1w8sPpxk3eTbF6N7-105" value="&lt;span style=&quot;background-color: rgb(248 , 249 , 250)&quot;&gt;polynomials&lt;/span&gt;" style="swimlane;html=1;startSize=20;horizontal=0;" parent="Wgui1w8sPpxk3eTbF6N7-100" vertex="1" collapsed="1">
          <mxGeometry y="200" width="120" height="20" as="geometry">
            <mxRectangle y="500" width="200" height="120" as="alternateBounds" />
          </mxGeometry>
        </mxCell>
        <mxCell id="Wgui1w8sPpxk3eTbF6N7-106" style="edgeStyle=orthogonalEdgeStyle;rounded=0;orthogonalLoop=1;jettySize=auto;html=1;entryX=0;entryY=0.5;entryDx=0;entryDy=0;noEdgeStyle=1;orthogonal=1;sketch=1;sketchStyle=rough;fillColor=#f5f5f5;strokeColor=#666666;gradientColor=#b3b3b3;" parent="1" source="Wgui1w8sPpxk3eTbF6N7-107" target="Wgui1w8sPpxk3eTbF6N7-114" edge="1">
          <mxGeometry relative="1" as="geometry" />
        </mxCell>
        <mxCell id="Wgui1w8sPpxk3eTbF6N7-107" value="Variant" style="swimlane;html=1;childLayout=stackLayout;resizeParent=1;resizeParentMax=0;horizontal=1;startSize=20;horizontalStack=0;sketch=1;sketchStyle=rough;fillColor=#f5f5f5;strokeColor=#666666;gradientColor=#b3b3b3;" parent="1" vertex="1" collapsed="1">
          <mxGeometry x="-4410" y="-1360.003653564453" width="120" height="20" as="geometry">
            <mxRectangle x="490" y="250" width="160" height="120" as="alternateBounds" />
          </mxGeometry>
        </mxCell>
        <mxCell id="Wgui1w8sPpxk3eTbF6N7-108" value="subsystems" style="swimlane;html=1;startSize=20;horizontal=0;" parent="Wgui1w8sPpxk3eTbF6N7-107" vertex="1" collapsed="1">
          <mxGeometry y="20" width="120" height="20" as="geometry">
            <mxRectangle y="20" width="160" height="120" as="alternateBounds" />
          </mxGeometry>
        </mxCell>
        <mxCell id="Wgui1w8sPpxk3eTbF6N7-109" value="channels" style="swimlane;html=1;startSize=20;horizontal=0;" parent="Wgui1w8sPpxk3eTbF6N7-107" vertex="1" collapsed="1">
          <mxGeometry y="40" width="120" height="20" as="geometry">
            <mxRectangle y="40" width="160" height="120" as="alternateBounds" />
          </mxGeometry>
        </mxCell>
        <mxCell id="Wgui1w8sPpxk3eTbF6N7-110" value="transient-logs" style="swimlane;html=1;startSize=20;horizontal=0;" parent="Wgui1w8sPpxk3eTbF6N7-107" vertex="1" collapsed="1">
          <mxGeometry y="60" width="120" height="20" as="geometry">
            <mxRectangle y="60" width="160" height="120" as="alternateBounds" />
          </mxGeometry>
        </mxCell>
        <mxCell id="Wgui1w8sPpxk3eTbF6N7-111" value="&lt;span style=&quot;background-color: rgb(248 , 249 , 250)&quot;&gt;bpts&lt;/span&gt;" style="swimlane;html=1;startSize=20;horizontal=0;" parent="Wgui1w8sPpxk3eTbF6N7-107" vertex="1" collapsed="1">
          <mxGeometry y="80" width="120" height="20" as="geometry">
            <mxRectangle y="380" width="200" height="120" as="alternateBounds" />
          </mxGeometry>
        </mxCell>
        <mxCell id="Wgui1w8sPpxk3eTbF6N7-112" value="&lt;span style=&quot;background-color: rgb(248 , 249 , 250)&quot;&gt;polynomials&lt;/span&gt;" style="swimlane;html=1;startSize=20;horizontal=0;" parent="Wgui1w8sPpxk3eTbF6N7-107" vertex="1" collapsed="1">
          <mxGeometry y="100" width="120" height="20" as="geometry">
            <mxRectangle y="500" width="200" height="120" as="alternateBounds" />
          </mxGeometry>
        </mxCell>
        <mxCell id="Wgui1w8sPpxk3eTbF6N7-113" style="edgeStyle=orthogonalEdgeStyle;rounded=0;orthogonalLoop=1;jettySize=auto;html=1;entryX=0;entryY=0.5;entryDx=0;entryDy=0;noEdgeStyle=1;orthogonal=1;sketch=1;sketchStyle=rough;fillColor=#f5f5f5;strokeColor=#666666;gradientColor=#b3b3b3;" parent="1" source="Wgui1w8sPpxk3eTbF6N7-114" target="Wgui1w8sPpxk3eTbF6N7-120" edge="1">
          <mxGeometry relative="1" as="geometry" />
        </mxCell>
        <mxCell id="Wgui1w8sPpxk3eTbF6N7-114" value="Variant" style="swimlane;html=1;childLayout=stackLayout;resizeParent=1;resizeParentMax=0;horizontal=1;startSize=20;horizontalStack=0;sketch=1;sketchStyle=rough;fillColor=#f5f5f5;strokeColor=#666666;gradientColor=#b3b3b3;" parent="1" vertex="1" collapsed="1">
          <mxGeometry x="-4210" y="-1360.003653564453" width="120" height="20" as="geometry">
            <mxRectangle x="670" y="250" width="160" height="120" as="alternateBounds" />
          </mxGeometry>
        </mxCell>
        <mxCell id="Wgui1w8sPpxk3eTbF6N7-115" value="subsystems" style="swimlane;html=1;startSize=20;horizontal=0;" parent="Wgui1w8sPpxk3eTbF6N7-114" vertex="1" collapsed="1">
          <mxGeometry y="20" width="120" height="20" as="geometry">
            <mxRectangle y="20" width="160" height="120" as="alternateBounds" />
          </mxGeometry>
        </mxCell>
        <mxCell id="Wgui1w8sPpxk3eTbF6N7-116" value="channels" style="swimlane;html=1;startSize=20;horizontal=0;" parent="Wgui1w8sPpxk3eTbF6N7-114" vertex="1" collapsed="1">
          <mxGeometry y="40" width="120" height="20" as="geometry">
            <mxRectangle y="40" width="160" height="120" as="alternateBounds" />
          </mxGeometry>
        </mxCell>
        <mxCell id="Wgui1w8sPpxk3eTbF6N7-117" value="transient-logs" style="swimlane;html=1;startSize=20;horizontal=0;" parent="Wgui1w8sPpxk3eTbF6N7-114" vertex="1" collapsed="1">
          <mxGeometry y="60" width="120" height="20" as="geometry">
            <mxRectangle y="60" width="160" height="120" as="alternateBounds" />
          </mxGeometry>
        </mxCell>
        <mxCell id="Wgui1w8sPpxk3eTbF6N7-118" value="&lt;span style=&quot;background-color: rgb(248 , 249 , 250)&quot;&gt;bpts&lt;/span&gt;" style="swimlane;html=1;startSize=20;horizontal=0;" parent="Wgui1w8sPpxk3eTbF6N7-114" vertex="1" collapsed="1">
          <mxGeometry y="80" width="120" height="20" as="geometry">
            <mxRectangle y="380" width="200" height="120" as="alternateBounds" />
          </mxGeometry>
        </mxCell>
        <mxCell id="Wgui1w8sPpxk3eTbF6N7-119" value="&lt;span style=&quot;background-color: rgb(248 , 249 , 250)&quot;&gt;polynomials&lt;/span&gt;" style="swimlane;html=1;startSize=20;horizontal=0;" parent="Wgui1w8sPpxk3eTbF6N7-114" vertex="1" collapsed="1">
          <mxGeometry y="100" width="120" height="20" as="geometry">
            <mxRectangle y="500" width="200" height="120" as="alternateBounds" />
          </mxGeometry>
        </mxCell>
        <mxCell id="Wgui1w8sPpxk3eTbF6N7-120" value="Test" style="swimlane;html=1;childLayout=stackLayout;resizeParent=1;resizeParentMax=0;horizontal=1;startSize=20;horizontalStack=0;sketch=1;sketchStyle=rough;fillColor=#f5f5f5;strokeColor=#666666;gradientColor=#b3b3b3;" parent="1" vertex="1" collapsed="1">
          <mxGeometry x="-4010" y="-1360.003653564453" width="120" height="20" as="geometry">
            <mxRectangle x="850" y="860" width="160" height="220" as="alternateBounds" />
          </mxGeometry>
        </mxCell>
        <mxCell id="Wgui1w8sPpxk3eTbF6N7-121" value="subsystems" style="swimlane;html=1;startSize=20;horizontal=0;" parent="Wgui1w8sPpxk3eTbF6N7-120" vertex="1" collapsed="1">
          <mxGeometry y="20" width="120" height="20" as="geometry">
            <mxRectangle y="20" width="160" height="120" as="alternateBounds" />
          </mxGeometry>
        </mxCell>
        <mxCell id="Wgui1w8sPpxk3eTbF6N7-122" value="channels" style="swimlane;html=1;startSize=20;horizontal=0;" parent="Wgui1w8sPpxk3eTbF6N7-120" vertex="1">
          <mxGeometry y="40" width="120" height="120" as="geometry">
            <mxRectangle y="40" width="160" height="20" as="alternateBounds" />
          </mxGeometry>
        </mxCell>
        <mxCell id="Wgui1w8sPpxk3eTbF6N7-123" value="transient-logs" style="swimlane;html=1;startSize=20;horizontal=0;" parent="Wgui1w8sPpxk3eTbF6N7-120" vertex="1" collapsed="1">
          <mxGeometry y="160" width="120" height="20" as="geometry">
            <mxRectangle y="60" width="160" height="120" as="alternateBounds" />
          </mxGeometry>
        </mxCell>
        <mxCell id="Wgui1w8sPpxk3eTbF6N7-124" value="&lt;span style=&quot;background-color: rgb(248 , 249 , 250)&quot;&gt;bpts&lt;/span&gt;" style="swimlane;html=1;startSize=20;horizontal=0;" parent="Wgui1w8sPpxk3eTbF6N7-120" vertex="1" collapsed="1">
          <mxGeometry y="180" width="120" height="20" as="geometry">
            <mxRectangle y="380" width="200" height="120" as="alternateBounds" />
          </mxGeometry>
        </mxCell>
        <mxCell id="Wgui1w8sPpxk3eTbF6N7-125" value="&lt;span style=&quot;background-color: rgb(248 , 249 , 250)&quot;&gt;polynomials&lt;/span&gt;" style="swimlane;html=1;startSize=20;horizontal=0;" parent="Wgui1w8sPpxk3eTbF6N7-120" vertex="1" collapsed="1">
          <mxGeometry y="200" width="120" height="20" as="geometry">
            <mxRectangle y="500" width="200" height="120" as="alternateBounds" />
          </mxGeometry>
        </mxCell>
        <mxCell id="Wgui1w8sPpxk3eTbF6N7-126" style="edgeStyle=orthogonalEdgeStyle;rounded=0;orthogonalLoop=1;jettySize=auto;html=1;entryX=0;entryY=0.5;entryDx=0;entryDy=0;noEdgeStyle=1;orthogonal=1;sketch=1;sketchStyle=rough;fillColor=#f5f5f5;strokeColor=#666666;gradientColor=#b3b3b3;" parent="1" source="Wgui1w8sPpxk3eTbF6N7-127" target="Wgui1w8sPpxk3eTbF6N7-134" edge="1">
          <mxGeometry relative="1" as="geometry" />
        </mxCell>
        <mxCell id="Wgui1w8sPpxk3eTbF6N7-127" value="Variant" style="swimlane;html=1;childLayout=stackLayout;resizeParent=1;resizeParentMax=0;horizontal=1;startSize=20;horizontalStack=0;sketch=1;sketchStyle=rough;fillColor=#f5f5f5;strokeColor=#666666;gradientColor=#b3b3b3;" parent="1" vertex="1" collapsed="1">
          <mxGeometry x="-4410" y="-1300.003653564453" width="120" height="20" as="geometry">
            <mxRectangle x="490" y="250" width="160" height="120" as="alternateBounds" />
          </mxGeometry>
        </mxCell>
        <mxCell id="Wgui1w8sPpxk3eTbF6N7-128" value="subsystems" style="swimlane;html=1;startSize=20;horizontal=0;" parent="Wgui1w8sPpxk3eTbF6N7-127" vertex="1" collapsed="1">
          <mxGeometry y="20" width="120" height="20" as="geometry">
            <mxRectangle y="20" width="160" height="120" as="alternateBounds" />
          </mxGeometry>
        </mxCell>
        <mxCell id="Wgui1w8sPpxk3eTbF6N7-129" value="channels" style="swimlane;html=1;startSize=20;horizontal=0;" parent="Wgui1w8sPpxk3eTbF6N7-127" vertex="1" collapsed="1">
          <mxGeometry y="40" width="120" height="20" as="geometry">
            <mxRectangle y="40" width="160" height="120" as="alternateBounds" />
          </mxGeometry>
        </mxCell>
        <mxCell id="Wgui1w8sPpxk3eTbF6N7-130" value="transient-logs" style="swimlane;html=1;startSize=20;horizontal=0;" parent="Wgui1w8sPpxk3eTbF6N7-127" vertex="1" collapsed="1">
          <mxGeometry y="60" width="120" height="20" as="geometry">
            <mxRectangle y="60" width="160" height="120" as="alternateBounds" />
          </mxGeometry>
        </mxCell>
        <mxCell id="Wgui1w8sPpxk3eTbF6N7-131" value="&lt;span style=&quot;background-color: rgb(248 , 249 , 250)&quot;&gt;bpts&lt;/span&gt;" style="swimlane;html=1;startSize=20;horizontal=0;" parent="Wgui1w8sPpxk3eTbF6N7-127" vertex="1" collapsed="1">
          <mxGeometry y="80" width="120" height="20" as="geometry">
            <mxRectangle y="380" width="200" height="120" as="alternateBounds" />
          </mxGeometry>
        </mxCell>
        <mxCell id="Wgui1w8sPpxk3eTbF6N7-132" value="&lt;span style=&quot;background-color: rgb(248 , 249 , 250)&quot;&gt;polynomials&lt;/span&gt;" style="swimlane;html=1;startSize=20;horizontal=0;" parent="Wgui1w8sPpxk3eTbF6N7-127" vertex="1" collapsed="1">
          <mxGeometry y="100" width="120" height="20" as="geometry">
            <mxRectangle y="500" width="200" height="120" as="alternateBounds" />
          </mxGeometry>
        </mxCell>
        <mxCell id="Wgui1w8sPpxk3eTbF6N7-133" style="edgeStyle=orthogonalEdgeStyle;rounded=0;orthogonalLoop=1;jettySize=auto;html=1;entryX=0;entryY=0.5;entryDx=0;entryDy=0;noEdgeStyle=1;orthogonal=1;sketch=1;sketchStyle=rough;fillColor=#f5f5f5;strokeColor=#666666;gradientColor=#b3b3b3;" parent="1" source="Wgui1w8sPpxk3eTbF6N7-134" target="Wgui1w8sPpxk3eTbF6N7-140" edge="1">
          <mxGeometry relative="1" as="geometry" />
        </mxCell>
        <mxCell id="Wgui1w8sPpxk3eTbF6N7-134" value="Variant" style="swimlane;html=1;childLayout=stackLayout;resizeParent=1;resizeParentMax=0;horizontal=1;startSize=20;horizontalStack=0;sketch=1;sketchStyle=rough;fillColor=#f5f5f5;strokeColor=#666666;gradientColor=#b3b3b3;" parent="1" vertex="1" collapsed="1">
          <mxGeometry x="-4210" y="-1300.003653564453" width="120" height="20" as="geometry">
            <mxRectangle x="670" y="250" width="160" height="120" as="alternateBounds" />
          </mxGeometry>
        </mxCell>
        <mxCell id="Wgui1w8sPpxk3eTbF6N7-135" value="subsystems" style="swimlane;html=1;startSize=20;horizontal=0;" parent="Wgui1w8sPpxk3eTbF6N7-134" vertex="1" collapsed="1">
          <mxGeometry y="20" width="120" height="20" as="geometry">
            <mxRectangle y="20" width="160" height="120" as="alternateBounds" />
          </mxGeometry>
        </mxCell>
        <mxCell id="Wgui1w8sPpxk3eTbF6N7-136" value="channels" style="swimlane;html=1;startSize=20;horizontal=0;" parent="Wgui1w8sPpxk3eTbF6N7-134" vertex="1" collapsed="1">
          <mxGeometry y="40" width="120" height="20" as="geometry">
            <mxRectangle y="40" width="160" height="120" as="alternateBounds" />
          </mxGeometry>
        </mxCell>
        <mxCell id="Wgui1w8sPpxk3eTbF6N7-137" value="transient-logs" style="swimlane;html=1;startSize=20;horizontal=0;" parent="Wgui1w8sPpxk3eTbF6N7-134" vertex="1" collapsed="1">
          <mxGeometry y="60" width="120" height="20" as="geometry">
            <mxRectangle y="60" width="160" height="120" as="alternateBounds" />
          </mxGeometry>
        </mxCell>
        <mxCell id="Wgui1w8sPpxk3eTbF6N7-138" value="&lt;span style=&quot;background-color: rgb(248 , 249 , 250)&quot;&gt;bpts&lt;/span&gt;" style="swimlane;html=1;startSize=20;horizontal=0;" parent="Wgui1w8sPpxk3eTbF6N7-134" vertex="1" collapsed="1">
          <mxGeometry y="80" width="120" height="20" as="geometry">
            <mxRectangle y="380" width="200" height="120" as="alternateBounds" />
          </mxGeometry>
        </mxCell>
        <mxCell id="Wgui1w8sPpxk3eTbF6N7-139" value="&lt;span style=&quot;background-color: rgb(248 , 249 , 250)&quot;&gt;polynomials&lt;/span&gt;" style="swimlane;html=1;startSize=20;horizontal=0;" parent="Wgui1w8sPpxk3eTbF6N7-134" vertex="1" collapsed="1">
          <mxGeometry y="100" width="120" height="20" as="geometry">
            <mxRectangle y="500" width="200" height="120" as="alternateBounds" />
          </mxGeometry>
        </mxCell>
        <mxCell id="Wgui1w8sPpxk3eTbF6N7-140" value="Test" style="swimlane;html=1;childLayout=stackLayout;resizeParent=1;resizeParentMax=0;horizontal=1;startSize=20;horizontalStack=0;sketch=1;sketchStyle=rough;fillColor=#f5f5f5;strokeColor=#666666;gradientColor=#b3b3b3;" parent="1" vertex="1" collapsed="1">
          <mxGeometry x="-4010" y="-1300.003653564453" width="120" height="20" as="geometry">
            <mxRectangle x="850" y="860" width="160" height="220" as="alternateBounds" />
          </mxGeometry>
        </mxCell>
        <mxCell id="Wgui1w8sPpxk3eTbF6N7-141" value="subsystems" style="swimlane;html=1;startSize=20;horizontal=0;" parent="Wgui1w8sPpxk3eTbF6N7-140" vertex="1" collapsed="1">
          <mxGeometry y="20" width="120" height="20" as="geometry">
            <mxRectangle y="20" width="160" height="120" as="alternateBounds" />
          </mxGeometry>
        </mxCell>
        <mxCell id="Wgui1w8sPpxk3eTbF6N7-142" value="channels" style="swimlane;html=1;startSize=20;horizontal=0;" parent="Wgui1w8sPpxk3eTbF6N7-140" vertex="1">
          <mxGeometry y="40" width="120" height="120" as="geometry">
            <mxRectangle y="40" width="160" height="20" as="alternateBounds" />
          </mxGeometry>
        </mxCell>
        <mxCell id="Wgui1w8sPpxk3eTbF6N7-143" value="transient-logs" style="swimlane;html=1;startSize=20;horizontal=0;" parent="Wgui1w8sPpxk3eTbF6N7-140" vertex="1" collapsed="1">
          <mxGeometry y="160" width="120" height="20" as="geometry">
            <mxRectangle y="60" width="160" height="120" as="alternateBounds" />
          </mxGeometry>
        </mxCell>
        <mxCell id="Wgui1w8sPpxk3eTbF6N7-144" value="&lt;span style=&quot;background-color: rgb(248 , 249 , 250)&quot;&gt;bpts&lt;/span&gt;" style="swimlane;html=1;startSize=20;horizontal=0;" parent="Wgui1w8sPpxk3eTbF6N7-140" vertex="1" collapsed="1">
          <mxGeometry y="180" width="120" height="20" as="geometry">
            <mxRectangle y="380" width="200" height="120" as="alternateBounds" />
          </mxGeometry>
        </mxCell>
        <mxCell id="Wgui1w8sPpxk3eTbF6N7-145" value="&lt;span style=&quot;background-color: rgb(248 , 249 , 250)&quot;&gt;polynomials&lt;/span&gt;" style="swimlane;html=1;startSize=20;horizontal=0;" parent="Wgui1w8sPpxk3eTbF6N7-140" vertex="1" collapsed="1">
          <mxGeometry y="200" width="120" height="20" as="geometry">
            <mxRectangle y="500" width="200" height="120" as="alternateBounds" />
          </mxGeometry>
        </mxCell>
        <mxCell id="Wgui1w8sPpxk3eTbF6N7-146" style="edgeStyle=orthogonalEdgeStyle;rounded=0;orthogonalLoop=1;jettySize=auto;html=1;entryX=0;entryY=0.5;entryDx=0;entryDy=0;noEdgeStyle=1;orthogonal=1;sketch=1;sketchStyle=rough;fillColor=#f5f5f5;strokeColor=#666666;gradientColor=#b3b3b3;" parent="1" source="Wgui1w8sPpxk3eTbF6N7-147" target="Wgui1w8sPpxk3eTbF6N7-154" edge="1">
          <mxGeometry relative="1" as="geometry" />
        </mxCell>
        <mxCell id="Wgui1w8sPpxk3eTbF6N7-147" value="Variant" style="swimlane;html=1;childLayout=stackLayout;resizeParent=1;resizeParentMax=0;horizontal=1;startSize=20;horizontalStack=0;sketch=1;sketchStyle=rough;fillColor=#f5f5f5;strokeColor=#666666;gradientColor=#b3b3b3;" parent="1" vertex="1" collapsed="1">
          <mxGeometry x="-4410" y="-1240.003653564453" width="120" height="20" as="geometry">
            <mxRectangle x="490" y="250" width="160" height="120" as="alternateBounds" />
          </mxGeometry>
        </mxCell>
        <mxCell id="Wgui1w8sPpxk3eTbF6N7-148" value="subsystems" style="swimlane;html=1;startSize=20;horizontal=0;" parent="Wgui1w8sPpxk3eTbF6N7-147" vertex="1" collapsed="1">
          <mxGeometry y="20" width="120" height="20" as="geometry">
            <mxRectangle y="20" width="160" height="120" as="alternateBounds" />
          </mxGeometry>
        </mxCell>
        <mxCell id="Wgui1w8sPpxk3eTbF6N7-149" value="channels" style="swimlane;html=1;startSize=20;horizontal=0;" parent="Wgui1w8sPpxk3eTbF6N7-147" vertex="1" collapsed="1">
          <mxGeometry y="40" width="120" height="20" as="geometry">
            <mxRectangle y="40" width="160" height="120" as="alternateBounds" />
          </mxGeometry>
        </mxCell>
        <mxCell id="Wgui1w8sPpxk3eTbF6N7-150" value="transient-logs" style="swimlane;html=1;startSize=20;horizontal=0;" parent="Wgui1w8sPpxk3eTbF6N7-147" vertex="1" collapsed="1">
          <mxGeometry y="60" width="120" height="20" as="geometry">
            <mxRectangle y="60" width="160" height="120" as="alternateBounds" />
          </mxGeometry>
        </mxCell>
        <mxCell id="Wgui1w8sPpxk3eTbF6N7-151" value="&lt;span style=&quot;background-color: rgb(248 , 249 , 250)&quot;&gt;bpts&lt;/span&gt;" style="swimlane;html=1;startSize=20;horizontal=0;" parent="Wgui1w8sPpxk3eTbF6N7-147" vertex="1" collapsed="1">
          <mxGeometry y="80" width="120" height="20" as="geometry">
            <mxRectangle y="380" width="200" height="120" as="alternateBounds" />
          </mxGeometry>
        </mxCell>
        <mxCell id="Wgui1w8sPpxk3eTbF6N7-152" value="&lt;span style=&quot;background-color: rgb(248 , 249 , 250)&quot;&gt;polynomials&lt;/span&gt;" style="swimlane;html=1;startSize=20;horizontal=0;" parent="Wgui1w8sPpxk3eTbF6N7-147" vertex="1" collapsed="1">
          <mxGeometry y="100" width="120" height="20" as="geometry">
            <mxRectangle y="500" width="200" height="120" as="alternateBounds" />
          </mxGeometry>
        </mxCell>
        <mxCell id="Wgui1w8sPpxk3eTbF6N7-153" style="edgeStyle=orthogonalEdgeStyle;rounded=0;orthogonalLoop=1;jettySize=auto;html=1;entryX=0;entryY=0.5;entryDx=0;entryDy=0;noEdgeStyle=1;orthogonal=1;sketch=1;sketchStyle=rough;fillColor=#f5f5f5;strokeColor=#666666;gradientColor=#b3b3b3;" parent="1" source="Wgui1w8sPpxk3eTbF6N7-154" target="Wgui1w8sPpxk3eTbF6N7-160" edge="1">
          <mxGeometry relative="1" as="geometry" />
        </mxCell>
        <mxCell id="Wgui1w8sPpxk3eTbF6N7-154" value="Variant" style="swimlane;html=1;childLayout=stackLayout;resizeParent=1;resizeParentMax=0;horizontal=1;startSize=20;horizontalStack=0;sketch=1;sketchStyle=rough;fillColor=#f5f5f5;strokeColor=#666666;gradientColor=#b3b3b3;" parent="1" vertex="1" collapsed="1">
          <mxGeometry x="-4210" y="-1240.003653564453" width="120" height="20" as="geometry">
            <mxRectangle x="670" y="250" width="160" height="120" as="alternateBounds" />
          </mxGeometry>
        </mxCell>
        <mxCell id="Wgui1w8sPpxk3eTbF6N7-155" value="subsystems" style="swimlane;html=1;startSize=20;horizontal=0;" parent="Wgui1w8sPpxk3eTbF6N7-154" vertex="1" collapsed="1">
          <mxGeometry y="20" width="120" height="20" as="geometry">
            <mxRectangle y="20" width="160" height="120" as="alternateBounds" />
          </mxGeometry>
        </mxCell>
        <mxCell id="Wgui1w8sPpxk3eTbF6N7-156" value="channels" style="swimlane;html=1;startSize=20;horizontal=0;" parent="Wgui1w8sPpxk3eTbF6N7-154" vertex="1" collapsed="1">
          <mxGeometry y="40" width="120" height="20" as="geometry">
            <mxRectangle y="40" width="160" height="120" as="alternateBounds" />
          </mxGeometry>
        </mxCell>
        <mxCell id="Wgui1w8sPpxk3eTbF6N7-157" value="transient-logs" style="swimlane;html=1;startSize=20;horizontal=0;" parent="Wgui1w8sPpxk3eTbF6N7-154" vertex="1" collapsed="1">
          <mxGeometry y="60" width="120" height="20" as="geometry">
            <mxRectangle y="60" width="160" height="120" as="alternateBounds" />
          </mxGeometry>
        </mxCell>
        <mxCell id="Wgui1w8sPpxk3eTbF6N7-158" value="&lt;span style=&quot;background-color: rgb(248 , 249 , 250)&quot;&gt;bpts&lt;/span&gt;" style="swimlane;html=1;startSize=20;horizontal=0;" parent="Wgui1w8sPpxk3eTbF6N7-154" vertex="1" collapsed="1">
          <mxGeometry y="80" width="120" height="20" as="geometry">
            <mxRectangle y="380" width="200" height="120" as="alternateBounds" />
          </mxGeometry>
        </mxCell>
        <mxCell id="Wgui1w8sPpxk3eTbF6N7-159" value="&lt;span style=&quot;background-color: rgb(248 , 249 , 250)&quot;&gt;polynomials&lt;/span&gt;" style="swimlane;html=1;startSize=20;horizontal=0;" parent="Wgui1w8sPpxk3eTbF6N7-154" vertex="1" collapsed="1">
          <mxGeometry y="100" width="120" height="20" as="geometry">
            <mxRectangle y="500" width="200" height="120" as="alternateBounds" />
          </mxGeometry>
        </mxCell>
        <mxCell id="Wgui1w8sPpxk3eTbF6N7-160" value="Test" style="swimlane;html=1;childLayout=stackLayout;resizeParent=1;resizeParentMax=0;horizontal=1;startSize=20;horizontalStack=0;sketch=1;sketchStyle=rough;fillColor=#f5f5f5;strokeColor=#666666;gradientColor=#b3b3b3;" parent="1" vertex="1" collapsed="1">
          <mxGeometry x="-4010" y="-1240.003653564453" width="120" height="20" as="geometry">
            <mxRectangle x="850" y="860" width="160" height="220" as="alternateBounds" />
          </mxGeometry>
        </mxCell>
        <mxCell id="Wgui1w8sPpxk3eTbF6N7-161" value="subsystems" style="swimlane;html=1;startSize=20;horizontal=0;" parent="Wgui1w8sPpxk3eTbF6N7-160" vertex="1" collapsed="1">
          <mxGeometry y="20" width="120" height="20" as="geometry">
            <mxRectangle y="20" width="160" height="120" as="alternateBounds" />
          </mxGeometry>
        </mxCell>
        <mxCell id="Wgui1w8sPpxk3eTbF6N7-162" value="channels" style="swimlane;html=1;startSize=20;horizontal=0;" parent="Wgui1w8sPpxk3eTbF6N7-160" vertex="1">
          <mxGeometry y="40" width="120" height="120" as="geometry">
            <mxRectangle y="40" width="160" height="20" as="alternateBounds" />
          </mxGeometry>
        </mxCell>
        <mxCell id="Wgui1w8sPpxk3eTbF6N7-163" value="transient-logs" style="swimlane;html=1;startSize=20;horizontal=0;" parent="Wgui1w8sPpxk3eTbF6N7-160" vertex="1" collapsed="1">
          <mxGeometry y="160" width="120" height="20" as="geometry">
            <mxRectangle y="60" width="160" height="120" as="alternateBounds" />
          </mxGeometry>
        </mxCell>
        <mxCell id="Wgui1w8sPpxk3eTbF6N7-164" value="&lt;span style=&quot;background-color: rgb(248 , 249 , 250)&quot;&gt;bpts&lt;/span&gt;" style="swimlane;html=1;startSize=20;horizontal=0;" parent="Wgui1w8sPpxk3eTbF6N7-160" vertex="1" collapsed="1">
          <mxGeometry y="180" width="120" height="20" as="geometry">
            <mxRectangle y="380" width="200" height="120" as="alternateBounds" />
          </mxGeometry>
        </mxCell>
        <mxCell id="Wgui1w8sPpxk3eTbF6N7-165" value="&lt;span style=&quot;background-color: rgb(248 , 249 , 250)&quot;&gt;polynomials&lt;/span&gt;" style="swimlane;html=1;startSize=20;horizontal=0;" parent="Wgui1w8sPpxk3eTbF6N7-160" vertex="1" collapsed="1">
          <mxGeometry y="200" width="120" height="20" as="geometry">
            <mxRectangle y="500" width="200" height="120" as="alternateBounds" />
          </mxGeometry>
        </mxCell>
        <mxCell id="Wgui1w8sPpxk3eTbF6N7-166" value="GID convention V3&lt;br&gt;&lt;br&gt;&lt;br&gt;&lt;br&gt;&lt;br&gt;&lt;table border=&quot;0&quot; cellpadding=&quot;0&quot; cellspacing=&quot;0&quot; width=&quot;213&quot; style=&quot;border-collapse: collapse ; width: 160pt&quot;&gt; &lt;colgroup&gt;&lt;col width=&quot;85&quot; style=&quot;width: 64pt&quot;&gt;&lt;/colgroup&gt; &lt;colgroup&gt;&lt;col width=&quot;64&quot; span=&quot;2&quot; style=&quot;width: 48pt&quot;&gt;&lt;/colgroup&gt; &lt;tbody&gt;&lt;tr style=&quot;height: 15.0pt&quot;&gt;  &lt;td height=&quot;20&quot; width=&quot;85&quot; style=&quot;height: 15.0pt ; width: 64pt&quot;&gt;PBS&lt;/td&gt;  &lt;td align=&quot;right&quot; width=&quot;64&quot; style=&quot;width: 48pt&quot;&gt;1&lt;/td&gt;  &lt;td align=&quot;right&quot; width=&quot;64&quot; style=&quot;width: 48pt&quot;&gt;1000&lt;/td&gt; &lt;/tr&gt; &lt;tr style=&quot;height: 15.0pt&quot;&gt;  &lt;td height=&quot;20&quot; style=&quot;height: 15.0pt&quot;&gt;DTS&lt;/td&gt;  &lt;td align=&quot;right&quot;&gt;1001&lt;/td&gt;  &lt;td align=&quot;right&quot;&gt;2000&lt;/td&gt; &lt;/tr&gt; &lt;tr style=&quot;height: 15.0pt&quot;&gt;  &lt;td height=&quot;20&quot; style=&quot;height: 15.0pt&quot;&gt;FCS&lt;/td&gt;  &lt;td align=&quot;right&quot;&gt;2001&lt;/td&gt;  &lt;td align=&quot;right&quot;&gt;3000&lt;/td&gt; &lt;/tr&gt; &lt;tr style=&quot;height: 15.0pt&quot;&gt;  &lt;td height=&quot;20&quot; style=&quot;height: 15.0pt&quot;&gt;Arinc&amp;nbsp;&lt;/td&gt;  &lt;td align=&quot;right&quot;&gt;3001&lt;/td&gt;  &lt;td align=&quot;right&quot;&gt;6000&lt;/td&gt; &lt;/tr&gt; &lt;tr style=&quot;height: 15.0pt&quot;&gt;  &lt;td height=&quot;20&quot; style=&quot;height: 15.0pt&quot;&gt;Calculated&amp;nbsp;&lt;/td&gt;  &lt;td align=&quot;right&quot;&gt;6001&lt;/td&gt;  &lt;td align=&quot;right&quot;&gt;10000&lt;/td&gt; &lt;/tr&gt; &lt;tr style=&quot;height: 15.0pt&quot;&gt;  &lt;td height=&quot;20&quot; style=&quot;height: 15.0pt&quot;&gt;iDDS Cube1&lt;/td&gt;  &lt;td align=&quot;right&quot;&gt;10001&lt;/td&gt;  &lt;td align=&quot;right&quot;&gt;10500&lt;/td&gt; &lt;/tr&gt; &lt;tr style=&quot;height: 15.0pt&quot;&gt;  &lt;td height=&quot;20&quot; style=&quot;height: 15.0pt&quot;&gt;iDDS Cube2&lt;/td&gt;  &lt;td align=&quot;right&quot;&gt;10501&lt;/td&gt;  &lt;td align=&quot;right&quot;&gt;11000&lt;/td&gt; &lt;/tr&gt; &lt;tr style=&quot;height: 15.0pt&quot;&gt;  &lt;td height=&quot;20&quot; style=&quot;height: 15.0pt&quot;&gt;iDDS Cube3&lt;/td&gt;  &lt;td align=&quot;right&quot;&gt;11001&lt;/td&gt;  &lt;td align=&quot;right&quot;&gt;11500&lt;/td&gt; &lt;/tr&gt;&lt;/tbody&gt;&lt;/table&gt;" style="text;html=1;align=center;verticalAlign=middle;resizable=0;points=[];autosize=1;fontSize=10;fontFamily=Comic Sans MS;fillColor=#e1d5e7;strokeColor=#9673a6;" parent="1" vertex="1">
          <mxGeometry x="-4770" y="-2880.0000000000005" width="230" height="230" as="geometry" />
        </mxCell>
        <mxCell id="Wgui1w8sPpxk3eTbF6N7-167" value="&lt;h1&gt;GATES Configuration&lt;/h1&gt;" style="text;html=1;fillColor=none;align=center;verticalAlign=middle;whiteSpace=wrap;rounded=1;comic=0;sketch=1;fontFamily=Comic Sans MS;fontSize=20;glass=0;strokeColor=#000000;strokeWidth=9;dashed=1;" parent="1" vertex="1">
          <mxGeometry x="-4590" y="-3260" width="290" height="120" as="geometry" />
        </mxCell>
        <mxCell id="JqOLdT1LsUDMldBZ7WH4-14" style="edgeStyle=orthogonalEdgeStyle;rounded=0;orthogonalLoop=1;jettySize=auto;html=1;exitX=1;exitY=0.5;exitDx=0;exitDy=0;entryX=0;entryY=0.5;entryDx=0;entryDy=0;gradientColor=#b3b3b3;fillColor=#f5f5f5;strokeColor=#666666;" parent="1" source="JqOLdT1LsUDMldBZ7WH4-1" target="JqOLdT1LsUDMldBZ7WH4-7" edge="1">
          <mxGeometry relative="1" as="geometry" />
        </mxCell>
        <mxCell id="JqOLdT1LsUDMldBZ7WH4-1" value="On-Site" style="swimlane;html=1;childLayout=stackLayout;resizeParent=1;resizeParentMax=0;horizontal=1;startSize=20;horizontalStack=0;sketch=1;sketchStyle=rough;gradientColor=#b3b3b3;fillColor=#f5f5f5;strokeColor=#666666;" parent="1" vertex="1" collapsed="1">
          <mxGeometry x="-4100" y="-1420.003653564453" width="120" height="20" as="geometry">
            <mxRectangle x="670" y="250" width="160" height="120" as="alternateBounds" />
          </mxGeometry>
        </mxCell>
        <mxCell id="JqOLdT1LsUDMldBZ7WH4-2" value="subsystems" style="swimlane;html=1;startSize=20;horizontal=0;" parent="JqOLdT1LsUDMldBZ7WH4-1" vertex="1" collapsed="1">
          <mxGeometry y="20" width="120" height="20" as="geometry">
            <mxRectangle y="20" width="160" height="120" as="alternateBounds" />
          </mxGeometry>
        </mxCell>
        <mxCell id="JqOLdT1LsUDMldBZ7WH4-3" value="channels" style="swimlane;html=1;startSize=20;horizontal=0;" parent="JqOLdT1LsUDMldBZ7WH4-1" vertex="1" collapsed="1">
          <mxGeometry y="40" width="120" height="20" as="geometry">
            <mxRectangle y="40" width="160" height="120" as="alternateBounds" />
          </mxGeometry>
        </mxCell>
        <mxCell id="JqOLdT1LsUDMldBZ7WH4-4" value="transient-logs" style="swimlane;html=1;startSize=20;horizontal=0;" parent="JqOLdT1LsUDMldBZ7WH4-1" vertex="1" collapsed="1">
          <mxGeometry y="60" width="120" height="20" as="geometry">
            <mxRectangle y="60" width="160" height="120" as="alternateBounds" />
          </mxGeometry>
        </mxCell>
        <mxCell id="JqOLdT1LsUDMldBZ7WH4-5" value="&lt;span style=&quot;background-color: rgb(248 , 249 , 250)&quot;&gt;bpts&lt;/span&gt;" style="swimlane;html=1;startSize=20;horizontal=0;" parent="JqOLdT1LsUDMldBZ7WH4-1" vertex="1" collapsed="1">
          <mxGeometry y="80" width="120" height="20" as="geometry">
            <mxRectangle y="380" width="200" height="120" as="alternateBounds" />
          </mxGeometry>
        </mxCell>
        <mxCell id="JqOLdT1LsUDMldBZ7WH4-6" value="&lt;span style=&quot;background-color: rgb(248 , 249 , 250)&quot;&gt;polynomials&lt;/span&gt;" style="swimlane;html=1;startSize=20;horizontal=0;" parent="JqOLdT1LsUDMldBZ7WH4-1" vertex="1" collapsed="1">
          <mxGeometry y="100" width="120" height="20" as="geometry">
            <mxRectangle y="500" width="200" height="120" as="alternateBounds" />
          </mxGeometry>
        </mxCell>
        <mxCell id="JqOLdT1LsUDMldBZ7WH4-7" value="Test" style="swimlane;html=1;childLayout=stackLayout;resizeParent=1;resizeParentMax=0;horizontal=1;startSize=20;horizontalStack=0;sketch=1;sketchStyle=rough;gradientColor=#b3b3b3;fillColor=#f5f5f5;strokeColor=#666666;" parent="1" vertex="1" collapsed="1">
          <mxGeometry x="-3900" y="-1420.003653564453" width="120" height="20" as="geometry">
            <mxRectangle x="850" y="860" width="160" height="220" as="alternateBounds" />
          </mxGeometry>
        </mxCell>
        <mxCell id="JqOLdT1LsUDMldBZ7WH4-8" value="subsystems" style="swimlane;html=1;startSize=20;horizontal=0;" parent="JqOLdT1LsUDMldBZ7WH4-7" vertex="1" collapsed="1">
          <mxGeometry y="20" width="120" height="20" as="geometry">
            <mxRectangle y="20" width="160" height="120" as="alternateBounds" />
          </mxGeometry>
        </mxCell>
        <mxCell id="JqOLdT1LsUDMldBZ7WH4-9" value="channels" style="swimlane;html=1;startSize=20;horizontal=0;" parent="JqOLdT1LsUDMldBZ7WH4-7" vertex="1">
          <mxGeometry y="40" width="120" height="120" as="geometry">
            <mxRectangle y="40" width="160" height="20" as="alternateBounds" />
          </mxGeometry>
        </mxCell>
        <mxCell id="JqOLdT1LsUDMldBZ7WH4-10" value="transient-logs" style="swimlane;html=1;startSize=20;horizontal=0;" parent="JqOLdT1LsUDMldBZ7WH4-7" vertex="1" collapsed="1">
          <mxGeometry y="160" width="120" height="20" as="geometry">
            <mxRectangle y="60" width="160" height="120" as="alternateBounds" />
          </mxGeometry>
        </mxCell>
        <mxCell id="JqOLdT1LsUDMldBZ7WH4-11" value="&lt;span style=&quot;background-color: rgb(248 , 249 , 250)&quot;&gt;bpts&lt;/span&gt;" style="swimlane;html=1;startSize=20;horizontal=0;" parent="JqOLdT1LsUDMldBZ7WH4-7" vertex="1" collapsed="1">
          <mxGeometry y="180" width="120" height="20" as="geometry">
            <mxRectangle y="380" width="200" height="120" as="alternateBounds" />
          </mxGeometry>
        </mxCell>
        <mxCell id="JqOLdT1LsUDMldBZ7WH4-12" value="&lt;span style=&quot;background-color: rgb(248 , 249 , 250)&quot;&gt;polynomials&lt;/span&gt;" style="swimlane;html=1;startSize=20;horizontal=0;" parent="JqOLdT1LsUDMldBZ7WH4-7" vertex="1" collapsed="1">
          <mxGeometry y="200" width="120" height="20" as="geometry">
            <mxRectangle y="500" width="200" height="120" as="alternateBounds" />
          </mxGeometry>
        </mxCell>
        <mxCell id="JqOLdT1LsUDMldBZ7WH4-16" value="In progress" style="rounded=1;whiteSpace=wrap;html=1;gradientColor=#ffa500;fillColor=#ffcd28;strokeColor=#d79b00;sketch=1;fontFamily=Comic Sans MS;" parent="1" vertex="1">
          <mxGeometry x="-5040" y="-2530" width="80" height="40" as="geometry" />
        </mxCell>
        <mxCell id="JqOLdT1LsUDMldBZ7WH4-17" value="Bug/Issue" style="rounded=1;whiteSpace=wrap;html=1;gradientColor=#ea6b66;fillColor=#f8cecc;strokeColor=#b85450;sketch=1;fontFamily=Comic Sans MS;" parent="1" vertex="1">
          <mxGeometry x="-4920" y="-2530" width="80" height="40" as="geometry" />
        </mxCell>
        <mxCell id="JqOLdT1LsUDMldBZ7WH4-19" value="Nick Scope" style="rounded=1;whiteSpace=wrap;html=1;gradientColor=#b3b3b3;fillColor=#f5f5f5;strokeColor=#666666;sketch=1;fontFamily=Comic Sans MS;" parent="1" vertex="1">
          <mxGeometry x="-4800" y="-2530" width="80" height="40" as="geometry" />
        </mxCell>
        <mxCell id="JqOLdT1LsUDMldBZ7WH4-20" value="Ready" style="rounded=1;whiteSpace=wrap;html=1;gradientColor=#97d077;fillColor=#d5e8d4;strokeColor=#82b366;sketch=1;fontFamily=Comic Sans MS;" parent="1" vertex="1">
          <mxGeometry x="-4680" y="-2530" width="80" height="40" as="geometry" />
        </mxCell>
        <mxCell id="FcIGjHqDoQgn5boDgz93-4" value="eus" style="swimlane;html=1;childLayout=stackLayout;resizeParent=1;resizeParentMax=0;horizontal=1;startSize=20;horizontalStack=0;sketch=1;sketchStyle=rough;gradientColor=#97d077;fillColor=#d5e8d4;strokeColor=#82b366;" vertex="1" parent="1">
          <mxGeometry x="-5020" y="-2430.003653564453" width="240" height="140" as="geometry">
            <mxRectangle x="1280" y="1040" width="240" height="20" as="alternateBounds" />
          </mxGeometry>
        </mxCell>
        <mxCell id="FcIGjHqDoQgn5boDgz93-5" value="" style="swimlane;html=1;startSize=20;horizontal=0;" vertex="1" parent="FcIGjHqDoQgn5boDgz93-4">
          <mxGeometry y="20" width="240" height="120" as="geometry">
            <mxRectangle y="20" width="240" height="20" as="alternateBounds" />
          </mxGeometry>
        </mxCell>
        <mxCell id="FcIGjHqDoQgn5boDgz93-11" value="&lt;ul&gt;&lt;li&gt;Cleanup Merge Aleks to V12 =&amp;gt; V13&lt;/li&gt;&lt;li&gt;Tested V13 Ok R4R&lt;/li&gt;&lt;/ul&gt;" style="text;align=left;verticalAlign=middle;resizable=0;points=[];autosize=1;fontSize=10;fontFamily=Comic Sans MS;rounded=0;sketch=0;html=1;" vertex="1" parent="FcIGjHqDoQgn5boDgz93-5">
          <mxGeometry x="20" width="220" height="50" as="geometry" />
        </mxCell>
        <mxCell id="FcIGjHqDoQgn5boDgz93-12" value="tests" style="swimlane;html=1;childLayout=stackLayout;resizeParent=1;resizeParentMax=0;horizontal=1;startSize=20;horizontalStack=0;sketch=1;sketchStyle=rough;gradientColor=#ea6b66;fillColor=#f8cecc;strokeColor=#b85450;" vertex="1" parent="1">
          <mxGeometry x="-4730" y="-2430.003653564453" width="250" height="140" as="geometry">
            <mxRectangle x="1280" y="1040" width="240" height="20" as="alternateBounds" />
          </mxGeometry>
        </mxCell>
        <mxCell id="FcIGjHqDoQgn5boDgz93-13" value="" style="swimlane;html=1;startSize=20;horizontal=0;" vertex="1" parent="FcIGjHqDoQgn5boDgz93-12">
          <mxGeometry y="20" width="250" height="120" as="geometry">
            <mxRectangle y="20" width="240" height="20" as="alternateBounds" />
          </mxGeometry>
        </mxCell>
        <mxCell id="FcIGjHqDoQgn5boDgz93-14" value="&lt;ul&gt;&lt;li&gt;ATP_Calibration_01&lt;/li&gt;&lt;ul&gt;&lt;li&gt;&lt;font color=&quot;#ff3333&quot;&gt;Cannot create more test BUG&lt;/font&gt;&lt;/li&gt;&lt;/ul&gt;&lt;/ul&gt;" style="text;align=left;verticalAlign=middle;resizable=0;points=[];autosize=1;fontSize=10;fontFamily=Comic Sans MS;rounded=0;sketch=0;html=1;" vertex="1" parent="FcIGjHqDoQgn5boDgz93-13">
          <mxGeometry x="20" width="230" height="50" as="geometry" />
        </mxCell>
      </root>
    </mxGraphModel>
  </diagram>
</mxfile>
